<svg width="160" height="42" viewBox="0 0 160 42" fill="none" xmlns="http://www.w3.org/2000/svg">
<path d="M58.0581 1.09087C57.92 0.973496 57.7267 0.918262 57.4713 0.918262C57.3056 0.918262 57.1261 0.973496 56.9466 1.09087C56.767 1.20134 56.6082 1.36014 56.484 1.56727V6.06886H55.324V1.71225C55.324 1.41537 55.255 1.20824 55.1169 1.09087C54.9788 0.973496 54.7786 0.918262 54.5231 0.918262C54.3574 0.918262 54.1848 0.980407 54.0053 1.09778C53.8258 1.21515 53.6739 1.36704 53.5427 1.56036V6.07577H52.3828V0.110471H53.3494L53.4737 0.60067C53.6532 0.35902 53.8603 0.200219 54.0951 0.124272C54.3298 0.048325 54.537 0 54.7234 0C55.0617 0 55.3517 0.062131 55.6002 0.186408C55.8488 0.310686 56.049 0.476389 56.2009 0.683518C56.408 0.455676 56.6428 0.28998 56.9051 0.172607C57.1675 0.0552343 57.423 0 57.6577 0C58.2238 0 58.6588 0.151883 58.9626 0.462576C59.2664 0.766365 59.4183 1.18063 59.4183 1.70536V6.07577H58.2584V1.71916C58.2584 1.42228 58.1893 1.21515 58.0512 1.09778L58.0581 1.09087Z" fill="#231F20"/>
<path d="M66.7924 0.013747C67.3448 0.013747 67.7866 0.179458 68.118 0.517768L68.2147 0.110417H69.133V6.07571H68.263L68.125 5.59932C67.98 5.76502 67.7935 5.90311 67.5795 6.01358C67.3655 6.12405 67.1031 6.17238 66.7924 6.17238C66.3712 6.17238 66.0191 6.11714 65.7223 6.00667C65.4254 5.8962 65.1837 5.71669 65.0042 5.47504C64.8178 5.23339 64.6866 4.91579 64.6038 4.52225C64.5209 4.13561 64.4795 3.65921 64.4795 3.09305C64.4795 2.5269 64.5209 2.05741 64.6107 1.67077C64.7004 1.28413 64.8316 0.959642 65.0249 0.711087C65.2113 0.462533 65.453 0.283022 65.743 0.172553C66.0329 0.0620846 66.392 0.00683594 66.7993 0.00683594L66.7924 0.013747ZM66.7924 5.28864C67.1376 5.28864 67.4069 5.2403 67.6002 5.15054C67.7866 5.06079 67.9316 4.92961 68.0214 4.7639V1.40841C67.904 1.2427 67.7521 1.11152 67.5519 1.02177C67.3517 0.932012 67.1031 0.883694 66.7924 0.883694C66.5508 0.883694 66.3505 0.925108 66.1987 1.00106C66.0468 1.077 65.9294 1.20129 65.8396 1.3808C65.7499 1.55341 65.6946 1.78125 65.6601 2.06432C65.6256 2.3474 65.6118 2.6857 65.6118 3.09305C65.6118 3.50041 65.6256 3.84564 65.6601 4.12181C65.6946 4.39798 65.7499 4.62581 65.8396 4.80533C65.9294 4.98484 66.0468 5.10222 66.1987 5.17816C66.3505 5.25411 66.5508 5.28864 66.7924 5.28864Z" fill="#231F20"/>
<path d="M76.6726 6.1654C76.4033 6.1654 76.1686 6.12398 75.9683 6.04112C75.7681 5.95827 75.5955 5.84779 75.4436 5.7028V7.96741H74.332V0.110342H75.2089L75.3262 0.538405C75.6438 0.19319 76.0926 0.0136719 76.6726 0.0136719C77.0869 0.0136719 77.439 0.0688995 77.7289 0.179368C78.0189 0.289837 78.2606 0.469347 78.447 0.717902C78.6334 0.966456 78.7715 1.28406 78.8543 1.67761C78.9441 2.06425 78.9855 2.54064 78.9855 3.09989C78.9855 3.65914 78.9441 4.13554 78.8612 4.52908C78.7784 4.91572 78.6472 5.23332 78.4608 5.48188C78.2744 5.72353 78.0396 5.90303 77.7427 6.0135C77.4459 6.12397 77.0869 6.1792 76.6726 6.1792V6.1654ZM76.6726 0.890509C76.3619 0.890509 76.1064 0.938848 75.9062 1.0286C75.706 1.11836 75.5541 1.24954 75.4436 1.41524V4.77074C75.5334 4.93644 75.6715 5.06762 75.8648 5.15738C76.0581 5.24713 76.3274 5.29545 76.6726 5.29545C76.9142 5.29545 77.1075 5.26093 77.2594 5.18498C77.4113 5.10903 77.5356 4.98477 77.6185 4.81216C77.7013 4.63955 77.7635 4.4117 77.798 4.12862C77.8325 3.84555 77.8463 3.50724 77.8463 3.09989C77.8463 2.69254 77.8325 2.35423 77.798 2.07116C77.7635 1.78808 77.7082 1.56713 77.6185 1.38762C77.5287 1.21501 77.4113 1.09074 77.2594 1.00789C77.1075 0.931944 76.9073 0.890509 76.6726 0.890509Z" fill="#231F20"/>
<path d="M85.2819 5.00556C85.4752 5.17816 85.7376 5.26792 86.0482 5.26792C86.3382 5.26792 86.5799 5.19887 86.7732 5.06769C86.9665 4.93651 87.0632 4.73628 87.0632 4.46011C87.0632 4.31512 87.0355 4.19085 86.9872 4.09419C86.9389 3.99753 86.8699 3.91467 86.787 3.85253C86.7042 3.79039 86.6075 3.73515 86.497 3.69372C86.3866 3.6523 86.2692 3.61089 86.1518 3.56256L85.3716 3.29329C84.909 3.12758 84.55 2.90664 84.3015 2.63737C84.0529 2.3681 83.9217 2.02289 83.9217 1.58792C83.9217 1.08391 84.1012 0.697269 84.4672 0.421098C84.8331 0.144926 85.3233 0.00683594 85.9516 0.00683594C86.5799 0.00683594 87.1046 0.151844 87.4705 0.43492C87.8365 0.717996 88.0367 1.18749 88.0574 1.83649H86.8975C86.8837 1.53961 86.8008 1.31175 86.6351 1.15295C86.4763 0.994152 86.2485 0.911296 85.9585 0.911296C85.6685 0.911296 85.4614 0.973442 85.3026 1.09081C85.1438 1.20819 85.0609 1.3946 85.0609 1.65006C85.0609 1.77434 85.0816 1.87791 85.1231 1.96076C85.1645 2.05052 85.2266 2.12646 85.3095 2.19551C85.3923 2.26455 85.4959 2.32668 85.6271 2.38191C85.7514 2.43715 85.9033 2.49929 86.0759 2.55452L86.8491 2.81689C87.0356 2.88593 87.2151 2.96879 87.3808 3.05854C87.5465 3.1483 87.6984 3.25186 87.8227 3.37613C87.9469 3.50041 88.0436 3.6454 88.1195 3.81111C88.1955 3.97681 88.2231 4.17703 88.2231 4.41178C88.2231 4.69485 88.1679 4.94342 88.0574 5.15745C87.9469 5.37149 87.795 5.55789 87.6017 5.70979C87.4084 5.86168 87.1736 5.97905 86.9044 6.055C86.6351 6.13095 86.3382 6.17238 86.0275 6.17238C85.275 6.17238 84.7226 5.98596 84.3774 5.62003C84.0322 5.2541 83.8527 4.757 83.8389 4.14252H84.9712C84.985 4.54987 85.0885 4.83984 85.2888 5.01245L85.2819 5.00556Z" fill="#231F20"/>
<path d="M94.2368 3.42447C94.2368 3.76968 94.2644 4.05967 94.3058 4.29442C94.3473 4.52916 94.4163 4.72938 94.5061 4.87437C94.5958 5.01936 94.7132 5.12983 94.8651 5.19197C95.0101 5.2541 95.1965 5.28864 95.4174 5.28864C95.8593 5.28864 96.17 5.17816 96.3426 4.95722C96.5152 4.73628 96.605 4.41869 96.6188 4.01134H97.7511C97.6958 4.7501 97.4749 5.29553 97.0952 5.64765C96.7154 5.99977 96.1562 6.17238 95.4174 6.17238C94.9963 6.17238 94.6441 6.11714 94.3473 6.00667C94.0504 5.8962 93.8087 5.71669 93.6292 5.47504C93.4428 5.23339 93.3116 4.91579 93.2288 4.52225C93.1459 4.13561 93.1045 3.65921 93.1045 3.09305C93.1045 2.5269 93.1459 2.05741 93.2357 1.67077C93.3254 1.28413 93.4566 0.959642 93.643 0.711087C93.8294 0.462533 94.0711 0.283022 94.3611 0.172553C94.6511 0.0620846 95.0101 0.00683594 95.4174 0.00683594C95.7696 0.00683594 96.094 0.0551744 96.3771 0.14493C96.6671 0.234686 96.9087 0.39348 97.109 0.614417C97.3092 0.835354 97.4611 1.13914 97.5716 1.51888C97.6751 1.89861 97.7304 2.38192 97.7304 2.96878V3.42447H94.2437H94.2368ZM95.4174 0.890584C95.2034 0.890584 95.0239 0.918205 94.8858 0.980343C94.7477 1.04248 94.6303 1.13224 94.5406 1.26342C94.4508 1.3946 94.3818 1.56031 94.3404 1.76744C94.2989 1.97457 94.2644 2.22312 94.2506 2.52001H96.6119C96.5981 2.24384 96.5704 2.00217 96.529 1.79504C96.4876 1.58792 96.4186 1.42222 96.3288 1.28413C96.239 1.15295 96.1217 1.0563 95.9698 0.987255C95.8179 0.918212 95.6384 0.890584 95.4174 0.890584Z" fill="#231F20"/>
<path d="M104.973 0.013747C105.525 0.013747 105.967 0.179458 106.299 0.517768L106.395 0.110417H107.314V6.07571H106.444L106.306 5.59932C106.161 5.76502 105.974 5.90311 105.76 6.01358C105.546 6.12405 105.284 6.17238 104.973 6.17238C104.552 6.17238 104.2 6.11714 103.903 6.00667C103.606 5.8962 103.364 5.71669 103.185 5.47504C102.998 5.23339 102.867 4.91579 102.784 4.52225C102.702 4.13561 102.66 3.65921 102.66 3.09305C102.66 2.5269 102.702 2.05741 102.791 1.67077C102.881 1.28413 103.012 0.959642 103.206 0.711087C103.392 0.462533 103.634 0.283022 103.924 0.172553C104.214 0.0620846 104.573 0.00683594 104.98 0.00683594L104.973 0.013747ZM104.973 5.28864C105.318 5.28864 105.588 5.2403 105.781 5.15054C105.967 5.06079 106.112 4.92961 106.202 4.7639V1.40841C106.085 1.2427 105.933 1.11152 105.733 1.02177C105.532 0.932012 105.284 0.883694 104.973 0.883694C104.731 0.883694 104.531 0.925108 104.379 1.00106C104.227 1.077 104.11 1.20129 104.02 1.3808C103.931 1.55341 103.875 1.78125 103.841 2.06432C103.806 2.3474 103.792 2.6857 103.792 3.09305C103.792 3.50041 103.806 3.84564 103.841 4.12181C103.875 4.39798 103.931 4.62581 104.02 4.80533C104.11 4.98484 104.227 5.10222 104.379 5.17816C104.531 5.25411 104.731 5.28864 104.973 5.28864Z" fill="#231F20"/>
<path d="M142.772 39.3368C142.772 39.7723 143.086 40.0862 143.522 40.0862H146.454C146.889 40.0862 147.203 39.7723 147.203 39.3368V35.0528L142.772 33.1641V39.3317V39.3368Z" fill="url(#paint0_linear_1224_961)"/>
<path d="M149.826 25.4722L142.772 28.6674V31.5183L147.203 33.4071V28.9307L150.763 35.4984L153.416 32.0905L149.826 25.4722Z" fill="url(#paint1_linear_1224_961)"/>
<path d="M147.755 21.649C147.588 21.3604 147.32 21.2085 146.975 21.2085H143.527C143.091 21.2085 142.777 21.5225 142.777 21.9579V27.0014L149.102 24.1353L147.755 21.6541V21.649Z" fill="url(#paint2_linear_1224_961)"/>
<path d="M151.553 36.9515L153.011 39.6404C153.178 39.9341 153.447 40.0911 153.791 40.0911H157.24C157.675 40.0911 157.989 39.7771 157.989 39.3416V28.6875L151.548 36.9515H151.553Z" fill="url(#paint3_linear_1224_961)"/>
<path d="M159.386 23.1681L155.948 19.8261C155.867 19.7299 155.72 19.7299 155.634 19.8261L152.191 23.1681C152.074 23.3049 152.165 23.5125 152.348 23.5125H153.563V31.8981L157.994 26.2115V23.5125H159.229C159.406 23.5125 159.503 23.2998 159.386 23.1681Z" fill="url(#paint4_linear_1224_961)"/>
<path d="M15.7381 22.1147H11.2517C11.1099 22.1147 10.9985 22.2261 10.9985 22.3679V31.1637C10.9985 31.7004 11.039 32.4043 11.0845 33.017C10.7959 32.384 10.4313 31.6346 10.087 31.0371L5.00804 22.2413C4.96247 22.1654 4.88145 22.1147 4.7903 22.1147H0.253188C0.111403 22.1147 0 22.2261 0 22.3679V41.195C0 41.3368 0.111403 41.4482 0.253188 41.4482H4.73966C4.88145 41.4482 4.99285 41.3368 4.99285 41.195V32.4246C4.99285 31.8878 4.95235 31.1839 4.90678 30.5712C5.19541 31.2042 5.56 31.9536 5.90434 32.5512L11.0086 41.3216C11.0542 41.3975 11.1352 41.4482 11.2263 41.4482H15.7381C15.8799 41.4482 15.9913 41.3368 15.9913 41.195V22.3679C15.9913 22.2261 15.8799 22.1147 15.7381 22.1147Z" fill="#231F20"/>
<path d="M28.9753 22.2869C28.9398 22.1856 28.8436 22.1147 28.7373 22.1147H24.0178C23.9064 22.1147 23.8102 22.1856 23.7799 22.2869L17.5464 41.114C17.5211 41.1899 17.5363 41.276 17.5818 41.3418C17.6274 41.4077 17.7084 41.4482 17.7894 41.4482H22.4076C22.519 41.4482 22.6202 41.3722 22.6506 41.2608L23.7039 37.4934H29.0411L30.1146 41.2608C30.145 41.3672 30.2463 41.4431 30.3577 41.4431H34.9758C35.0568 41.4431 35.1328 41.4026 35.1834 41.3368C35.2341 41.2709 35.2442 41.1849 35.2189 41.1089L28.9854 22.2818L28.9753 22.2869ZM27.8359 33.3057H24.8888L25.8459 29.9686C26.0231 29.3407 26.2206 28.4596 26.3725 27.776C26.5193 28.4596 26.7219 29.3407 26.8991 29.9686L27.8359 33.3057Z" fill="#231F20"/>
<path d="M51.6855 22.1147H46.8902C46.7788 22.1147 46.6825 22.1856 46.6471 22.292L43.3658 33.0119C43.1885 33.5993 43.0164 34.3387 42.8898 34.9412C42.7632 34.3387 42.591 33.5993 42.4138 33.0119L39.1831 22.297C39.1527 22.1907 39.0515 22.1147 38.9401 22.1147H34.0687C33.9877 22.1147 33.9118 22.1553 33.8611 22.2211C33.8155 22.2869 33.8004 22.373 33.8257 22.449L40.3123 41.276C40.3478 41.3773 40.444 41.4482 40.5503 41.4482H45.2191C45.3255 41.4482 45.4217 41.3773 45.4571 41.276L51.9185 22.449C51.9438 22.373 51.9337 22.2869 51.883 22.2211C51.8324 22.1553 51.7564 22.1147 51.6754 22.1147H51.6855Z" fill="#231F20"/>
<path d="M58.1723 22.1147H53.6858C53.546 22.1147 53.4326 22.2281 53.4326 22.3679V41.195C53.4326 41.3348 53.546 41.4482 53.6858 41.4482H58.1723C58.3121 41.4482 58.4255 41.3348 58.4255 41.195V22.3679C58.4255 22.2281 58.3121 22.1147 58.1723 22.1147Z" fill="#231F20"/>
<path d="M79.0963 31.042C79.0963 30.5964 78.7722 30.2672 78.3215 30.2672H70.2448C69.7992 30.2672 69.4701 30.5913 69.4701 31.042V33.6346C69.4701 34.0802 69.7942 34.4094 70.2448 34.4094H74.5997C74.3313 36.283 72.6299 37.5185 70.2448 37.5185C67.004 37.5185 64.6545 35.1993 64.6545 32.0092C64.6545 28.819 66.9787 26.4694 70.0575 26.4694C71.4855 26.4694 72.7565 26.9505 73.9313 27.9328C74.2807 28.2367 74.7313 28.1961 75.0301 27.8518L76.8429 25.9327C77.2936 25.3706 77.0201 24.9452 76.8176 24.7427C75.0453 22.94 72.6957 21.9829 70.0271 21.9829C64.4215 21.9829 60.0312 26.3884 60.0312 32.0041C60.0312 37.6198 64.457 41.9999 70.1081 41.9999C75.3947 41.9999 79.0912 38.2072 79.0912 32.7788V31.042H79.0963Z" fill="#231F20"/>
<path d="M90.0339 22.2869C89.9984 22.1856 89.9022 22.1147 89.7959 22.1147H85.0764C84.965 22.1147 84.8688 22.1856 84.8385 22.2869L78.605 41.114C78.5797 41.1899 78.5948 41.276 78.6404 41.3418C78.686 41.4077 78.767 41.4482 78.848 41.4482H83.4662C83.5776 41.4482 83.6789 41.3722 83.7092 41.2608L84.7625 37.4934H90.0997L91.1732 41.2608C91.2036 41.3672 91.3049 41.4431 91.4163 41.4431H96.0344C96.1154 41.4431 96.1914 41.4026 96.242 41.3368C96.2927 41.2709 96.3028 41.1849 96.2775 41.1089L90.044 22.2818L90.0339 22.2869ZM88.8945 33.3057H85.9474L86.9045 29.9686C87.0817 29.3407 87.2792 28.4596 87.4311 27.776C87.5779 28.4596 87.7805 29.3407 87.9577 29.9686L88.8945 33.3057Z" fill="#231F20"/>
<path d="M110.669 22.1147H95.052C94.9102 22.1147 94.7988 22.2261 94.7988 22.3679V26.3177C94.7988 26.4594 94.9102 26.5708 95.052 26.5708H100.364V41.195C100.364 41.3368 100.475 41.4482 100.617 41.4482H105.104C105.245 41.4482 105.357 41.3368 105.357 41.195V26.5708H110.669C110.81 26.5708 110.922 26.4594 110.922 26.3177V22.3679C110.922 22.2261 110.81 22.1147 110.669 22.1147Z" fill="#231F20"/>
<path d="M117.409 22.1147H112.922C112.782 22.1147 112.669 22.2281 112.669 22.3679V41.195C112.669 41.3348 112.782 41.4482 112.922 41.4482H117.409C117.548 41.4482 117.662 41.3348 117.662 41.195V22.3679C117.662 22.2281 117.548 22.1147 117.409 22.1147Z" fill="#231F20"/>
<path d="M130.052 21.8008C124.441 21.8008 120.208 26.0442 120.208 31.665C120.208 37.2858 124.441 41.7672 130.052 41.7672C135.663 41.7672 139.896 37.4225 139.896 31.665C139.896 25.9075 135.663 21.8008 130.052 21.8008ZM130.052 37.0477C127.419 37.0477 125.358 34.683 125.358 31.665C125.358 28.647 127.419 26.5202 130.052 26.5202C132.685 26.5202 134.746 28.7786 134.746 31.665C134.746 34.5513 132.685 37.0477 130.052 37.0477Z" fill="#231F20"/>
<defs>
<linearGradient id="paint0_linear_1224_961" x1="142.772" y1="36.6277" x2="147.203" y2="36.6277" gradientUnits="userSpaceOnUse">
<stop offset="0.11" stop-color="#AD2724"/>
<stop offset="0.97" stop-color="#EA1881"/>
</linearGradient>
<linearGradient id="paint1_linear_1224_961" x1="142.772" y1="30.4853" x2="153.416" y2="30.4853" gradientUnits="userSpaceOnUse">
<stop stop-color="#0092D2"/>
<stop offset="0.39" stop-color="#0085C5"/>
<stop offset="1" stop-color="#016AAB"/>
</linearGradient>
<linearGradient id="paint2_linear_1224_961" x1="142.772" y1="24.105" x2="149.097" y2="24.105" gradientUnits="userSpaceOnUse">
<stop offset="0.12" stop-color="#8DC63F"/>
<stop offset="1" stop-color="#009845"/>
</linearGradient>
<linearGradient id="paint3_linear_1224_961" x1="151.553" y1="34.3893" x2="157.994" y2="34.3893" gradientUnits="userSpaceOnUse">
<stop stop-color="#F89C41"/>
<stop offset="1" stop-color="#FABA3C"/>
</linearGradient>
<linearGradient id="paint4_linear_1224_961" x1="152.14" y1="25.8266" x2="159.442" y2="25.8266" gradientUnits="userSpaceOnUse">
<stop stop-color="#AD2724"/>
<stop offset="1" stop-color="#DD1C81"/>
</linearGradient>
</defs>
</svg>
