<svg width="76" height="20" viewBox="0 0 76 20" fill="none" xmlns="http://www.w3.org/2000/svg">
<path d="M27.6469 0.519461C27.5811 0.463569 27.4891 0.437267 27.3674 0.437267C27.2885 0.437267 27.203 0.463569 27.1175 0.519461C27.0321 0.572065 26.9564 0.647685 26.8973 0.746317V2.88993H26.3449V0.815357C26.3449 0.673984 26.312 0.575353 26.2463 0.519461C26.1805 0.463569 26.0852 0.437267 25.9635 0.437267C25.8846 0.437267 25.8024 0.46686 25.717 0.522752C25.6315 0.578644 25.5592 0.650969 25.4967 0.743026V2.89322H24.9443V0.0526053H25.4046L25.4638 0.286033C25.5493 0.170962 25.6479 0.0953426 25.7597 0.0591772C25.8715 0.0230119 25.9701 0 26.0589 0C26.22 0 26.3581 0.0295862 26.4764 0.0887658C26.5948 0.147945 26.6901 0.226852 26.7625 0.325485C26.8611 0.216989 26.9729 0.138086 27.0978 0.0821939C27.2228 0.0263021 27.3444 0 27.4562 0C27.7258 0 27.9329 0.0723251 28.0776 0.220274C28.2222 0.364935 28.2946 0.562207 28.2946 0.812077V2.89322H27.7422V0.818648C27.7422 0.677275 27.7093 0.578644 27.6436 0.522752L27.6469 0.519461Z" fill="white"/>
<path d="M31.8057 0.00622066C32.0688 0.00622066 32.2792 0.0851304 32.437 0.246231L32.483 0.0522541H32.9203V2.89287H32.506L32.4403 2.66602C32.3712 2.74492 32.2825 2.81068 32.1805 2.86328C32.0786 2.91589 31.9537 2.9389 31.8057 2.9389C31.6052 2.9389 31.4375 2.9126 31.2961 2.85999C31.1548 2.80739 31.0397 2.72191 30.9542 2.60684C30.8654 2.49177 30.803 2.34053 30.7635 2.15313C30.7241 1.96901 30.7043 1.74215 30.7043 1.47256C30.7043 1.20296 30.7241 0.979395 30.7668 0.79528C30.8096 0.611166 30.872 0.456647 30.9641 0.338287C31.0528 0.219928 31.1679 0.134447 31.306 0.0818427C31.4441 0.0292386 31.615 0.00292969 31.809 0.00292969L31.8057 0.00622066ZM31.8057 2.51807C31.9701 2.51807 32.0984 2.49505 32.1904 2.45231C32.2792 2.40957 32.3482 2.34711 32.391 2.2682V0.670344C32.3351 0.591438 32.2627 0.528971 32.1674 0.48623C32.072 0.44349 31.9537 0.420481 31.8057 0.420481C31.6907 0.420481 31.5953 0.440202 31.523 0.476368C31.4507 0.512533 31.3948 0.571719 31.352 0.6572C31.3093 0.739394 31.283 0.847887 31.2665 0.982685C31.2501 1.11748 31.2435 1.27858 31.2435 1.47256C31.2435 1.66654 31.2501 1.83093 31.2665 1.96244C31.283 2.09395 31.3093 2.20244 31.352 2.28793C31.3948 2.37341 31.4507 2.4293 31.523 2.46547C31.5953 2.50163 31.6907 2.51807 31.8057 2.51807Z" fill="white"/>
<path d="M36.5107 2.93574C36.3824 2.93574 36.2707 2.91602 36.1753 2.87656C36.08 2.83711 35.9978 2.7845 35.9255 2.71546V3.79384H35.3961V0.0523811H35.8137L35.8696 0.25622C36.0208 0.0918326 36.2345 0.00634766 36.5107 0.00634766C36.7079 0.00634766 36.8756 0.0326465 37.0137 0.0852506C37.1518 0.137855 37.2668 0.223336 37.3556 0.341695C37.4444 0.460055 37.5101 0.611296 37.5496 0.798698C37.5923 0.982813 37.6121 1.20967 37.6121 1.47598C37.6121 1.74228 37.5923 1.96914 37.5529 2.15654C37.5134 2.34066 37.451 2.4919 37.3622 2.61026C37.2734 2.72533 37.1616 2.81081 37.0203 2.86341C36.8789 2.91601 36.7079 2.94231 36.5107 2.94231V2.93574ZM36.5107 0.423889C36.3627 0.423889 36.2411 0.446908 36.1457 0.489648C36.0504 0.532389 35.9781 0.594856 35.9255 0.673762V2.27162C35.9682 2.35052 36.0339 2.41299 36.126 2.45573C36.2181 2.49847 36.3463 2.52148 36.5107 2.52148C36.6257 2.52148 36.7178 2.50504 36.7901 2.46887C36.8625 2.43271 36.9216 2.37354 36.9611 2.29134C37.0005 2.20915 37.0301 2.10065 37.0466 1.96585C37.063 1.83105 37.0696 1.66995 37.0696 1.47598C37.0696 1.282 37.063 1.1209 37.0466 0.986103C37.0301 0.851305 37.0038 0.74609 36.9611 0.660608C36.9184 0.578414 36.8625 0.519239 36.7901 0.479786C36.7178 0.44362 36.6225 0.423889 36.5107 0.423889Z" fill="white"/>
<path d="M40.6105 2.38327C40.7025 2.46547 40.8275 2.50821 40.9754 2.50821C41.1135 2.50821 41.2286 2.47533 41.3206 2.41286C41.4127 2.35039 41.4587 2.25505 41.4587 2.12354C41.4587 2.05449 41.4456 1.99532 41.4226 1.94929C41.3995 1.90326 41.3667 1.8638 41.3272 1.83421C41.2878 1.80462 41.2417 1.77832 41.1891 1.75859C41.1365 1.73886 41.0806 1.71915 41.0247 1.69613L40.6532 1.56791C40.4329 1.489 40.262 1.38379 40.1436 1.25556C40.0253 1.12734 39.9628 0.962958 39.9628 0.755829C39.9628 0.515823 40.0483 0.331707 40.2225 0.200197C40.3968 0.0686868 40.6302 0.00292969 40.9294 0.00292969C41.2286 0.00292969 41.4785 0.071981 41.6527 0.206779C41.827 0.341577 41.9223 0.565144 41.9322 0.874193H41.3798C41.3732 0.73282 41.3338 0.624317 41.2549 0.548699C41.1793 0.47308 41.0708 0.433625 40.9327 0.433625C40.7946 0.433625 40.696 0.463218 40.6204 0.51911C40.5447 0.575002 40.5053 0.663771 40.5053 0.785418C40.5053 0.844597 40.5151 0.893918 40.5349 0.933371C40.5546 0.976112 40.5842 1.01228 40.6236 1.04515C40.6631 1.07803 40.7124 1.10762 40.7749 1.13392C40.8341 1.16022 40.9064 1.18981 40.9886 1.21611L41.3568 1.34105C41.4456 1.37393 41.5311 1.41338 41.61 1.45612C41.6889 1.49886 41.7612 1.54818 41.8204 1.60736C41.8796 1.66654 41.9256 1.73558 41.9618 1.81449C41.9979 1.89339 42.0111 1.98874 42.0111 2.10052C42.0111 2.23532 41.9848 2.35368 41.9322 2.4556C41.8796 2.55752 41.8072 2.64629 41.7152 2.71862C41.6231 2.79095 41.5113 2.84684 41.3831 2.88301C41.2549 2.91917 41.1135 2.9389 40.9656 2.9389C40.6072 2.9389 40.3442 2.85013 40.1798 2.67588C40.0154 2.50163 39.9299 2.26491 39.9233 1.9723H40.4625C40.4691 2.16628 40.5184 2.30436 40.6138 2.38655L40.6105 2.38327Z" fill="white"/>
<path d="M44.8748 1.63037C44.8748 1.79476 44.8879 1.93285 44.9076 2.04463C44.9274 2.15642 44.9602 2.25176 45.003 2.3208C45.0457 2.38985 45.1016 2.44245 45.1739 2.47204C45.243 2.50163 45.3318 2.51807 45.437 2.51807C45.6474 2.51807 45.7953 2.46546 45.8775 2.36026C45.9597 2.25505 46.0025 2.10381 46.009 1.90984H46.5482C46.5219 2.26163 46.4167 2.52136 46.2359 2.68903C46.0551 2.85671 45.7888 2.9389 45.437 2.9389C45.2364 2.9389 45.0687 2.9126 44.9274 2.85999C44.786 2.80739 44.6709 2.72191 44.5854 2.60684C44.4967 2.49177 44.4342 2.34053 44.3947 2.15313C44.3553 1.96901 44.3356 1.74215 44.3356 1.47256C44.3356 1.20296 44.3553 0.979395 44.398 0.79528C44.4408 0.611166 44.5032 0.456647 44.592 0.338287C44.6808 0.219928 44.7959 0.134447 44.9339 0.0818427C45.072 0.0292386 45.243 0.00292969 45.437 0.00292969C45.6046 0.00292969 45.7592 0.025948 45.894 0.0686889C46.032 0.11143 46.1471 0.187046 46.2425 0.292254C46.3378 0.397462 46.4101 0.542123 46.4627 0.722949C46.5121 0.903776 46.5384 1.13392 46.5384 1.41338V1.63037H44.878H44.8748ZM45.437 0.423762C45.3351 0.423762 45.2496 0.436915 45.1838 0.466505C45.1181 0.496095 45.0622 0.538837 45.0194 0.601304C44.9767 0.663771 44.9438 0.742681 44.9241 0.841314C44.9044 0.939947 44.8879 1.0583 44.8813 1.19968H46.0057C45.9992 1.06817 45.986 0.95309 45.9663 0.854458C45.9466 0.755825 45.9137 0.676922 45.871 0.611167C45.8282 0.548699 45.7723 0.502673 45.7 0.469796C45.6277 0.436918 45.5422 0.423762 45.437 0.423762Z" fill="white"/>
<path d="M49.987 0.00622066C50.25 0.00622066 50.4605 0.0851304 50.6183 0.246231L50.6643 0.0522541H51.1016V2.89287H50.6873L50.6216 2.66602C50.5525 2.74492 50.4637 2.81068 50.3618 2.86328C50.2599 2.91589 50.135 2.9389 49.987 2.9389C49.7865 2.9389 49.6188 2.9126 49.4774 2.85999C49.336 2.80739 49.221 2.72191 49.1355 2.60684C49.0467 2.49177 48.9843 2.34053 48.9448 2.15313C48.9053 1.96901 48.8856 1.74215 48.8856 1.47256C48.8856 1.20296 48.9053 0.979395 48.9481 0.79528C48.9908 0.611166 49.0533 0.456647 49.1454 0.338287C49.2341 0.219928 49.3492 0.134447 49.4873 0.0818427C49.6254 0.0292386 49.7963 0.00292969 49.9903 0.00292969L49.987 0.00622066ZM49.987 2.51807C50.1514 2.51807 50.2796 2.49505 50.3717 2.45231C50.4605 2.40957 50.5295 2.34711 50.5722 2.2682V0.670344C50.5163 0.591438 50.444 0.528971 50.3487 0.48623C50.2533 0.44349 50.135 0.420481 49.987 0.420481C49.8719 0.420481 49.7766 0.440202 49.7043 0.476368C49.6319 0.512533 49.576 0.571719 49.5333 0.6572C49.4906 0.739394 49.4643 0.847887 49.4478 0.982685C49.4314 1.11748 49.4248 1.27858 49.4248 1.47256C49.4248 1.66654 49.4314 1.83093 49.4478 1.96244C49.4643 2.09395 49.4906 2.20244 49.5333 2.28793C49.576 2.37341 49.6319 2.4293 49.7043 2.46547C49.7766 2.50163 49.8719 2.51807 49.987 2.51807Z" fill="white"/>
<path d="M67.9868 18.7319C67.9868 18.9392 68.1363 19.0887 68.3437 19.0887H69.7398C69.9472 19.0887 70.0967 18.9392 70.0967 18.7319V16.6919L67.9868 15.7925V18.7295V18.7319Z" fill="url(#paint0_linear_1224_14100)"/>
<path d="M71.3458 12.1299L67.9868 13.6514V15.009L70.0967 15.9084V13.7768L71.7919 16.9043L73.0554 15.2815L71.3458 12.1299Z" fill="url(#paint1_linear_1224_14100)"/>
<path d="M70.3595 10.3094C70.2799 10.1719 70.1521 10.0996 69.9881 10.0996H68.346C68.1386 10.0996 67.9891 10.2491 67.9891 10.4565V12.8582L71.0009 11.4933L70.3595 10.3118V10.3094Z" fill="url(#paint2_linear_1224_14100)"/>
<path d="M72.1681 17.5959L72.8625 18.8763C72.9421 19.0162 73.0699 19.0909 73.2339 19.0909H74.876C75.0833 19.0909 75.2328 18.9414 75.2328 18.734V13.6606L72.1656 17.5959H72.1681Z" fill="url(#paint3_linear_1224_14100)"/>
<path d="M75.8983 11.0326L74.2611 9.4411C74.2225 9.39528 74.1526 9.39528 74.1116 9.4411L72.4719 11.0326C72.4164 11.0977 72.4598 11.1965 72.5466 11.1965H73.1253V15.1897L75.2352 12.4818V11.1965H75.8236C75.908 11.1965 75.9538 11.0953 75.8983 11.0326Z" fill="url(#paint4_linear_1224_14100)"/>
<path d="M7.49435 10.5308H5.35793C5.29041 10.5308 5.23737 10.5838 5.23737 10.6513V14.8398C5.23737 15.0954 5.25665 15.4306 5.27835 15.7223C5.14091 15.4209 4.96729 15.064 4.80333 14.7795L2.38478 10.591C2.36308 10.5549 2.3245 10.5308 2.2811 10.5308H0.120565C0.0530488 10.5308 0 10.5838 0 10.6513V19.6166C0 19.6841 0.0530488 19.7372 0.120565 19.7372H2.25698C2.3245 19.7372 2.37755 19.6841 2.37755 19.6166V15.4402C2.37755 15.1846 2.35826 14.8494 2.33656 14.5577C2.474 14.8591 2.64762 15.2159 2.81159 15.5005L5.24219 19.6769C5.26389 19.713 5.30247 19.7372 5.34587 19.7372H7.49435C7.56186 19.7372 7.61491 19.6841 7.61491 19.6166V10.6513C7.61491 10.5838 7.56186 10.5308 7.49435 10.5308Z" fill="white"/>
<path d="M13.7975 10.6127C13.7806 10.5645 13.7348 10.5308 13.6842 10.5308H11.4368C11.3838 10.5308 11.338 10.5645 11.3235 10.6127L8.35517 19.578C8.34312 19.6142 8.35035 19.6552 8.37205 19.6865C8.39376 19.7179 8.43234 19.7372 8.47092 19.7372H10.67C10.7231 19.7372 10.7713 19.701 10.7858 19.6479L11.2873 17.8539H13.8288L14.34 19.6479C14.3545 19.6986 14.4027 19.7347 14.4558 19.7347H16.6549C16.6935 19.7347 16.7297 19.7155 16.7538 19.6841C16.7779 19.6528 16.7827 19.6118 16.7706 19.5756L13.8023 10.6103L13.7975 10.6127ZM13.255 15.8598H11.8516L12.3073 14.2707C12.3917 13.9717 12.4857 13.5521 12.5581 13.2266C12.628 13.5521 12.7245 13.9717 12.8089 14.2707L13.255 15.8598Z" fill="white"/>
<path d="M24.6123 10.5308H22.3288C22.2758 10.5308 22.2299 10.5645 22.2131 10.6152L20.6505 15.7199C20.5661 15.9996 20.4841 16.3517 20.4239 16.6386C20.3636 16.3517 20.2816 15.9996 20.1972 15.7199L18.6588 10.6176C18.6443 10.5669 18.5961 10.5308 18.543 10.5308H16.2234C16.1848 10.5308 16.1486 10.5501 16.1245 10.5814C16.1028 10.6127 16.0956 10.6537 16.1076 10.6899L19.1965 19.6552C19.2134 19.7034 19.2592 19.7372 19.3098 19.7372H21.5331C21.5837 19.7372 21.6295 19.7034 21.6464 19.6552L24.7232 10.6899C24.7353 10.6537 24.7305 10.6127 24.7063 10.5814C24.6822 10.5501 24.6461 10.5308 24.6075 10.5308H24.6123Z" fill="white"/>
<path d="M27.7012 10.5308H25.5648C25.4982 10.5308 25.4442 10.5847 25.4442 10.6513V19.6166C25.4442 19.6832 25.4982 19.7372 25.5648 19.7372H27.7012C27.7678 19.7372 27.8218 19.6832 27.8218 19.6166V10.6513C27.8218 10.5847 27.7678 10.5308 27.7012 10.5308Z" fill="white"/>
<path d="M37.6648 14.7816C37.6648 14.5694 37.5104 14.4127 37.2958 14.4127H33.4498C33.2376 14.4127 33.0809 14.567 33.0809 14.7816V16.0162C33.0809 16.2284 33.2352 16.3851 33.4498 16.3851H35.5235C35.3957 17.2773 34.5855 17.8657 33.4498 17.8657C31.9066 17.8657 30.7877 16.7613 30.7877 15.2422C30.7877 13.7231 31.8945 12.6042 33.3606 12.6042C34.0406 12.6042 34.6458 12.8333 35.2052 13.3011C35.3716 13.4457 35.5862 13.4265 35.7285 13.2625L36.5917 12.3486C36.8063 12.0809 36.6761 11.8784 36.5797 11.7819C35.7357 10.9235 34.6169 10.4678 33.3461 10.4678C30.6768 10.4678 28.5862 12.5656 28.5862 15.2398C28.5862 17.9139 30.6937 19.9997 33.3847 19.9997C35.9021 19.9997 37.6624 18.1936 37.6624 15.6087V14.7816H37.6648Z" fill="white"/>
<path d="M42.8732 10.6127C42.8563 10.5645 42.8105 10.5308 42.7599 10.5308H40.5125C40.4595 10.5308 40.4137 10.5645 40.3992 10.6127L37.4309 19.578C37.4188 19.6142 37.426 19.6552 37.4477 19.6865C37.4694 19.7179 37.508 19.7372 37.5466 19.7372H39.7457C39.7988 19.7372 39.847 19.701 39.8615 19.6479L40.363 17.8539H42.9045L43.4157 19.6479C43.4302 19.6986 43.4784 19.7347 43.5315 19.7347H45.7306C45.7692 19.7347 45.8053 19.7155 45.8295 19.6841C45.8536 19.6528 45.8584 19.6118 45.8463 19.5756L42.878 10.6103L42.8732 10.6127ZM42.3306 15.8598H40.9273L41.383 14.2707C41.4674 13.9717 41.5614 13.5521 41.6338 13.2266C41.7037 13.5521 41.8002 13.9717 41.8845 14.2707L42.3306 15.8598Z" fill="white"/>
<path d="M52.6993 10.5308H45.2628C45.1953 10.5308 45.1422 10.5838 45.1422 10.6513V12.5321C45.1422 12.5997 45.1953 12.6527 45.2628 12.6527H47.7922V19.6166C47.7922 19.6841 47.8453 19.7372 47.9128 19.7372H50.0492C50.1167 19.7372 50.1698 19.6841 50.1698 19.6166V12.6527H52.6993C52.7668 12.6527 52.8198 12.5997 52.8198 12.5321V10.6513C52.8198 10.5838 52.7668 10.5308 52.6993 10.5308Z" fill="white"/>
<path d="M55.9087 10.5308H53.7723C53.7057 10.5308 53.6517 10.5847 53.6517 10.6513V19.6166C53.6517 19.6832 53.7057 19.7372 53.7723 19.7372H55.9087C55.9753 19.7372 56.0293 19.6832 56.0293 19.6166V10.6513C56.0293 10.5847 55.9753 10.5308 55.9087 10.5308Z" fill="white"/>
<path d="M61.9298 10.3813C59.258 10.3813 57.2422 12.402 57.2422 15.0786C57.2422 17.7551 59.258 19.8892 61.9298 19.8892C64.6015 19.8892 66.6174 17.8203 66.6174 15.0786C66.6174 12.3369 64.6015 10.3813 61.9298 10.3813ZM61.9298 17.6418C60.6759 17.6418 59.6945 16.5157 59.6945 15.0786C59.6945 13.6414 60.6759 12.6287 61.9298 12.6287C63.1837 12.6287 64.1651 13.7041 64.1651 15.0786C64.1651 16.453 63.1837 17.6418 61.9298 17.6418Z" fill="white"/>
<defs>
<linearGradient id="paint0_linear_1224_14100" x1="67.9868" y1="17.4418" x2="70.0967" y2="17.4418" gradientUnits="userSpaceOnUse">
<stop offset="0.11" stop-color="#AD2724"/>
<stop offset="0.97" stop-color="#EA1881"/>
</linearGradient>
<linearGradient id="paint1_linear_1224_14100" x1="67.9868" y1="14.5171" x2="73.0554" y2="14.5171" gradientUnits="userSpaceOnUse">
<stop stop-color="#0092D2"/>
<stop offset="0.39" stop-color="#0085C5"/>
<stop offset="1" stop-color="#016AAB"/>
</linearGradient>
<linearGradient id="paint2_linear_1224_14100" x1="67.9867" y1="11.4789" x2="70.9984" y2="11.4789" gradientUnits="userSpaceOnUse">
<stop offset="0.12" stop-color="#8DC63F"/>
<stop offset="1" stop-color="#009845"/>
</linearGradient>
<linearGradient id="paint3_linear_1224_14100" x1="72.1681" y1="16.3758" x2="75.2352" y2="16.3758" gradientUnits="userSpaceOnUse">
<stop stop-color="#F89C41"/>
<stop offset="1" stop-color="#FABA3C"/>
</linearGradient>
<linearGradient id="paint4_linear_1224_14100" x1="72.4478" y1="12.2985" x2="75.9249" y2="12.2985" gradientUnits="userSpaceOnUse">
<stop stop-color="#AD2724"/>
<stop offset="1" stop-color="#DD1C81"/>
</linearGradient>
</defs>
</svg>
