<svg width="76" height="20" viewBox="0 0 76 20" fill="none" xmlns="http://www.w3.org/2000/svg">
<path d="M27.6469 0.519339C27.5811 0.463447 27.4891 0.437145 27.3674 0.437145C27.2885 0.437145 27.203 0.463447 27.1175 0.519339C27.0321 0.571943 26.9564 0.647563 26.8973 0.746195V2.88981H26.3449V0.815235C26.3449 0.673862 26.312 0.575231 26.2463 0.519339C26.1805 0.463447 26.0852 0.437145 25.9635 0.437145C25.8846 0.437145 25.8024 0.466738 25.717 0.52263C25.6315 0.578522 25.5592 0.650847 25.4967 0.742904V2.8931H24.9443V0.0524833H25.4046L25.4638 0.285911C25.5493 0.17084 25.6479 0.0952205 25.7597 0.0590552C25.8715 0.0228898 25.9701 -0.00012207 26.0589 -0.00012207C26.22 -0.00012207 26.3581 0.0294641 26.4764 0.0886438C26.5948 0.147823 26.6901 0.22673 26.7625 0.325363C26.8611 0.216867 26.9729 0.137964 27.0978 0.0820719C27.2228 0.02618 27.3444 -0.00012207 27.4562 -0.00012207C27.7258 -0.00012207 27.9329 0.072203 28.0776 0.220152C28.2222 0.364813 28.2946 0.562085 28.2946 0.811954V2.8931H27.7422V0.818526C27.7422 0.677153 27.7093 0.578522 27.6436 0.52263L27.6469 0.519339Z" fill="#231F20"/>
<path d="M31.806 0.00634273C32.069 0.00634273 32.2794 0.0852525 32.4372 0.246353L32.4833 0.0523761H32.9205V2.89299H32.5063L32.4405 2.66614C32.3715 2.74504 32.2827 2.8108 32.1808 2.8634C32.0789 2.91601 31.9539 2.93903 31.806 2.93903C31.6054 2.93903 31.4378 2.91272 31.2964 2.86011C31.155 2.80751 31.0399 2.72203 30.9545 2.60696C30.8657 2.49189 30.8032 2.34065 30.7638 2.15325C30.7243 1.96913 30.7046 1.74228 30.7046 1.47268C30.7046 1.20308 30.7243 0.979517 30.7671 0.795403C30.8098 0.611288 30.8723 0.456769 30.9643 0.338409C31.0531 0.22005 31.1682 0.134569 31.3062 0.0819648C31.4443 0.0293606 31.6153 0.00305176 31.8093 0.00305176L31.806 0.00634273ZM31.806 2.51819C31.9704 2.51819 32.0986 2.49518 32.1907 2.45244C32.2794 2.40969 32.3485 2.34723 32.3912 2.26832V0.670466C32.3353 0.59156 32.263 0.529093 32.1676 0.486353C32.0723 0.443612 31.9539 0.420603 31.806 0.420603C31.6909 0.420603 31.5956 0.440324 31.5232 0.47649C31.4509 0.512655 31.395 0.571841 31.3523 0.657322C31.3095 0.739516 31.2832 0.848009 31.2668 0.982807C31.2504 1.11761 31.2438 1.2787 31.2438 1.47268C31.2438 1.66666 31.2504 1.83105 31.2668 1.96256C31.2832 2.09407 31.3095 2.20257 31.3523 2.28805C31.395 2.37353 31.4509 2.42942 31.5232 2.46559C31.5956 2.50175 31.6909 2.51819 31.806 2.51819Z" fill="#231F20"/>
<path d="M36.5105 2.93574C36.3823 2.93574 36.2705 2.91602 36.1752 2.87656C36.0798 2.83711 35.9977 2.7845 35.9253 2.71546V3.79384H35.396V0.0523811H35.8135L35.8694 0.25622C36.0207 0.0918326 36.2344 0.00634766 36.5105 0.00634766C36.7078 0.00634766 36.8755 0.0326465 37.0136 0.0852506C37.1517 0.137855 37.2667 0.223336 37.3555 0.341695C37.4443 0.460055 37.51 0.611296 37.5495 0.798698C37.5922 0.982813 37.6119 1.20967 37.6119 1.47598C37.6119 1.74228 37.5922 1.96914 37.5528 2.15654C37.5133 2.34066 37.4508 2.4919 37.3621 2.61026C37.2733 2.72533 37.1615 2.81081 37.0201 2.86341C36.8788 2.91601 36.7078 2.94231 36.5105 2.94231V2.93574ZM36.5105 0.423889C36.3626 0.423889 36.2409 0.446908 36.1456 0.489648C36.0503 0.532389 35.9779 0.594856 35.9253 0.673762V2.27162C35.9681 2.35052 36.0338 2.41299 36.1259 2.45573C36.2179 2.49847 36.3462 2.52148 36.5105 2.52148C36.6256 2.52148 36.7177 2.50504 36.79 2.46887C36.8623 2.43271 36.9215 2.37354 36.961 2.29134C37.0004 2.20915 37.03 2.10065 37.0464 1.96585C37.0629 1.83105 37.0695 1.66995 37.0695 1.47598C37.0695 1.282 37.0629 1.1209 37.0464 0.986103C37.03 0.851305 37.0037 0.74609 36.961 0.660608C36.9182 0.578414 36.8623 0.519239 36.79 0.479786C36.7177 0.44362 36.6223 0.423889 36.5105 0.423889Z" fill="#231F20"/>
<path d="M40.6105 2.3834C40.7025 2.46559 40.8275 2.50833 40.9754 2.50833C41.1135 2.50833 41.2286 2.47545 41.3206 2.41298C41.4127 2.35052 41.4587 2.25517 41.4587 2.12366C41.4587 2.05462 41.4456 1.99544 41.4226 1.94941C41.3995 1.90338 41.3667 1.86392 41.3272 1.83434C41.2878 1.80475 41.2417 1.77844 41.1891 1.75871C41.1365 1.73899 41.0806 1.71927 41.0247 1.69625L40.6532 1.56803C40.4329 1.48912 40.262 1.38391 40.1436 1.25569C40.0253 1.12746 39.9628 0.96308 39.9628 0.755951C39.9628 0.515945 40.0483 0.33183 40.2225 0.200319C40.3968 0.0688089 40.6302 0.00305176 40.9294 0.00305176C41.2286 0.00305176 41.4785 0.0721031 41.6527 0.206901C41.827 0.341699 41.9223 0.565266 41.9322 0.874316H41.3798C41.3732 0.732942 41.3338 0.624439 41.2549 0.548821C41.1793 0.473202 41.0708 0.433747 40.9327 0.433747C40.7946 0.433747 40.696 0.46334 40.6204 0.519232C40.5447 0.575124 40.5053 0.663893 40.5053 0.78554C40.5053 0.844719 40.5151 0.89404 40.5349 0.933493C40.5546 0.976234 40.5842 1.0124 40.6236 1.04528C40.6631 1.07815 40.7124 1.10774 40.7749 1.13404C40.8341 1.16034 40.9064 1.18993 40.9886 1.21624L41.3568 1.34117C41.4456 1.37405 41.5311 1.4135 41.61 1.45625C41.6889 1.49899 41.7612 1.5483 41.8204 1.60748C41.8796 1.66666 41.9256 1.7357 41.9618 1.81461C41.9979 1.89352 42.0111 1.98886 42.0111 2.10064C42.0111 2.23544 41.9848 2.35381 41.9322 2.45573C41.8796 2.55765 41.8072 2.64641 41.7152 2.71874C41.6231 2.79107 41.5113 2.84697 41.3831 2.88313C41.2549 2.9193 41.1135 2.93903 40.9656 2.93903C40.6072 2.93903 40.3442 2.85025 40.1798 2.676C40.0154 2.50175 39.9299 2.26504 39.9233 1.97243H40.4625C40.4691 2.1664 40.5184 2.30448 40.6138 2.38668L40.6105 2.3834Z" fill="#231F20"/>
<path d="M44.8746 1.6305C44.8746 1.79488 44.8878 1.93297 44.9075 2.04476C44.9272 2.15654 44.9601 2.25188 45.0029 2.32093C45.0456 2.38997 45.1015 2.44257 45.1738 2.47216C45.2429 2.50175 45.3316 2.51819 45.4368 2.51819C45.6473 2.51819 45.7952 2.46559 45.8774 2.36038C45.9596 2.25517 46.0023 2.10394 46.0089 1.90996H46.5481C46.5218 2.26175 46.4166 2.52148 46.2358 2.68915C46.0549 2.85683 45.7886 2.93903 45.4368 2.93903C45.2363 2.93903 45.0686 2.91272 44.9272 2.86011C44.7859 2.80751 44.6708 2.72203 44.5853 2.60696C44.4966 2.49189 44.4341 2.34065 44.3946 2.15325C44.3552 1.96913 44.3354 1.74228 44.3354 1.47268C44.3354 1.20308 44.3552 0.979517 44.3979 0.795403C44.4407 0.611288 44.5031 0.456769 44.5919 0.338409C44.6807 0.22005 44.7957 0.134569 44.9338 0.0819648C45.0719 0.0293606 45.2429 0.00305176 45.4368 0.00305176C45.6045 0.00305176 45.759 0.0260701 45.8938 0.0688109C46.0319 0.111552 46.147 0.187168 46.2423 0.292376C46.3377 0.397584 46.41 0.542245 46.4626 0.723071C46.5119 0.903898 46.5382 1.13404 46.5382 1.4135V1.6305H44.8779H44.8746ZM45.4368 0.423884C45.3349 0.423884 45.2494 0.437037 45.1837 0.466627C45.1179 0.496217 45.062 0.538959 45.0193 0.601426C44.9766 0.663893 44.9437 0.742803 44.924 0.841436C44.9042 0.940069 44.8878 1.05843 44.8812 1.1998H46.0056C45.999 1.06829 45.9859 0.953212 45.9662 0.85458C45.9464 0.755947 45.9136 0.677044 45.8708 0.611289C45.8281 0.548822 45.7722 0.502795 45.6999 0.469918C45.6275 0.43704 45.5421 0.423884 45.4368 0.423884Z" fill="#231F20"/>
<path d="M49.9871 0.00634273C50.2502 0.00634273 50.4606 0.0852525 50.6184 0.246353L50.6644 0.0523761H51.1017V2.89299H50.6874L50.6217 2.66614C50.5526 2.74504 50.4639 2.8108 50.3619 2.8634C50.26 2.91601 50.1351 2.93903 49.9871 2.93903C49.7866 2.93903 49.6189 2.91272 49.4775 2.86011C49.3362 2.80751 49.2211 2.72203 49.1356 2.60696C49.0468 2.49189 48.9844 2.34065 48.9449 2.15325C48.9055 1.96913 48.8857 1.74228 48.8857 1.47268C48.8857 1.20308 48.9055 0.979517 48.9482 0.795403C48.991 0.611288 49.0534 0.456769 49.1455 0.338409C49.2342 0.22005 49.3493 0.134569 49.4874 0.0819648C49.6255 0.0293606 49.7965 0.00305176 49.9904 0.00305176L49.9871 0.00634273ZM49.9871 2.51819C50.1515 2.51819 50.2797 2.49518 50.3718 2.45244C50.4606 2.40969 50.5296 2.34723 50.5724 2.26832V0.670466C50.5165 0.59156 50.4441 0.529093 50.3488 0.486353C50.2535 0.443612 50.1351 0.420603 49.9871 0.420603C49.8721 0.420603 49.7767 0.440324 49.7044 0.47649C49.6321 0.512655 49.5762 0.571841 49.5334 0.657322C49.4907 0.739516 49.4644 0.848009 49.4479 0.982807C49.4315 1.11761 49.4249 1.2787 49.4249 1.47268C49.4249 1.66666 49.4315 1.83105 49.4479 1.96256C49.4644 2.09407 49.4907 2.20257 49.5334 2.28805C49.5762 2.37353 49.6321 2.42942 49.7044 2.46559C49.7767 2.50175 49.8721 2.51819 49.9871 2.51819Z" fill="#231F20"/>
<path d="M67.9868 18.7317C67.9868 18.9391 68.1363 19.0886 68.3437 19.0886H69.7398C69.9472 19.0886 70.0967 18.9391 70.0967 18.7317V16.6918L67.9868 15.7924V18.7293V18.7317Z" fill="url(#paint0_linear_1224_16756)"/>
<path d="M71.3458 12.1295L67.9868 13.6511V15.0086L70.0967 15.908V13.7764L71.7919 16.9039L73.0554 15.2811L71.3458 12.1295Z" fill="url(#paint1_linear_1224_16756)"/>
<path d="M70.3596 10.309C70.28 10.1716 70.1522 10.0992 69.9882 10.0992H68.3461C68.1388 10.0992 67.9893 10.2487 67.9893 10.4561V12.8578L71.001 11.493L70.3596 10.3114V10.309Z" fill="url(#paint2_linear_1224_16756)"/>
<path d="M72.1679 17.5959L72.8624 18.8763C72.942 19.0162 73.0698 19.0909 73.2337 19.0909H74.8758C75.0832 19.0909 75.2327 18.9414 75.2327 18.734V13.6606L72.1655 17.5959H72.1679Z" fill="url(#paint3_linear_1224_16756)"/>
<path d="M75.8985 11.0323L74.2612 9.44086C74.2226 9.39504 74.1527 9.39504 74.1117 9.44086L72.472 11.0323C72.4165 11.0974 72.4599 11.1963 72.5467 11.1963H73.1255V15.1894L75.2353 12.4815V11.1963H75.8237C75.9081 11.1963 75.9539 11.095 75.8985 11.0323Z" fill="url(#paint4_linear_1224_16756)"/>
<path d="M7.49435 10.5306H5.35793C5.29041 10.5306 5.23737 10.5837 5.23737 10.6512V14.8397C5.23737 15.0953 5.25665 15.4304 5.27835 15.7222C5.14091 15.4208 4.96729 15.0639 4.80333 14.7794L2.38478 10.5909C2.36308 10.5548 2.3245 10.5306 2.2811 10.5306H0.120565C0.0530488 10.5306 0 10.5837 0 10.6512V19.6165C0 19.684 0.0530488 19.737 0.120565 19.737H2.25698C2.3245 19.737 2.37755 19.684 2.37755 19.6165V15.4401C2.37755 15.1845 2.35826 14.8493 2.33656 14.5575C2.474 14.859 2.64762 15.2158 2.81159 15.5004L5.24219 19.6768C5.26389 19.7129 5.30247 19.737 5.34587 19.737H7.49435C7.56186 19.737 7.61491 19.684 7.61491 19.6165V10.6512C7.61491 10.5837 7.56186 10.5306 7.49435 10.5306Z" fill="#231F20"/>
<path d="M13.7977 10.6126C13.7809 10.5644 13.7351 10.5306 13.6844 10.5306H11.4371C11.384 10.5306 11.3382 10.5644 11.3237 10.6126L8.35542 19.5779C8.34336 19.6141 8.3506 19.6551 8.3723 19.6864C8.394 19.7177 8.43258 19.737 8.47116 19.737H10.6703C10.7233 19.737 10.7715 19.7009 10.786 19.6478L11.2876 17.8538H13.8291L14.3403 19.6478C14.3548 19.6985 14.403 19.7346 14.456 19.7346H16.6552C16.6937 19.7346 16.7299 19.7153 16.754 19.684C16.7781 19.6526 16.7829 19.6116 16.7709 19.5755L13.8026 10.6102L13.7977 10.6126ZM13.2552 15.8596H11.8518L12.3076 14.2706C12.392 13.9716 12.486 13.552 12.5583 13.2265C12.6283 13.552 12.7247 13.9716 12.8091 14.2706L13.2552 15.8596Z" fill="#231F20"/>
<path d="M24.6121 10.5306H22.3286C22.2755 10.5306 22.2297 10.5644 22.2128 10.615L20.6503 15.7198C20.5659 15.9995 20.4839 16.3515 20.4236 16.6385C20.3633 16.3515 20.2813 15.9995 20.197 15.7198L18.6585 10.6175C18.6441 10.5668 18.5958 10.5306 18.5428 10.5306H16.2231C16.1845 10.5306 16.1484 10.5499 16.1243 10.5813C16.1025 10.6126 16.0953 10.6536 16.1074 10.6898L19.1963 19.655C19.2131 19.7033 19.259 19.737 19.3096 19.737H21.5328C21.5835 19.737 21.6293 19.7033 21.6462 19.655L24.723 10.6898C24.735 10.6536 24.7302 10.6126 24.7061 10.5813C24.682 10.5499 24.6458 10.5306 24.6072 10.5306H24.6121Z" fill="#231F20"/>
<path d="M27.7013 10.5306H25.5649C25.4983 10.5306 25.4443 10.5846 25.4443 10.6512V19.6165C25.4443 19.6831 25.4983 19.737 25.5649 19.737H27.7013C27.7679 19.737 27.8219 19.6831 27.8219 19.6165V10.6512C27.8219 10.5846 27.7679 10.5306 27.7013 10.5306Z" fill="#231F20"/>
<path d="M37.6645 14.7817C37.6645 14.5695 37.5102 14.4128 37.2956 14.4128H33.4496C33.2374 14.4128 33.0806 14.5671 33.0806 14.7817V16.0163C33.0806 16.2285 33.2349 16.3853 33.4496 16.3853H35.5233C35.3955 17.2774 34.5853 17.8658 33.4496 17.8658C31.9063 17.8658 30.7875 16.7614 30.7875 15.2423C30.7875 13.7232 31.8943 12.6043 33.3603 12.6043C34.0403 12.6043 34.6456 12.8334 35.205 13.3012C35.3714 13.4459 35.586 13.4266 35.7282 13.2626L36.5915 12.3487C36.8061 12.0811 36.6759 11.8785 36.5794 11.7821C35.7355 10.9236 34.6166 10.4679 33.3459 10.4679C30.6765 10.4679 28.5859 12.5657 28.5859 15.2399C28.5859 17.914 30.6934 19.9998 33.3844 19.9998C35.9019 19.9998 37.6621 18.1937 37.6621 15.6088V14.7817H37.6645Z" fill="#231F20"/>
<path d="M42.8729 10.6126C42.8561 10.5644 42.8102 10.5306 42.7596 10.5306H40.5123C40.4592 10.5306 40.4134 10.5644 40.3989 10.6126L37.4306 19.5779C37.4186 19.6141 37.4258 19.6551 37.4475 19.6864C37.4692 19.7177 37.5078 19.737 37.5464 19.737H39.7455C39.7985 19.737 39.8467 19.7009 39.8612 19.6478L40.3628 17.8538H42.9043L43.4155 19.6478C43.43 19.6985 43.4782 19.7346 43.5312 19.7346H45.7303C45.7689 19.7346 45.8051 19.7153 45.8292 19.684C45.8533 19.6526 45.8581 19.6116 45.8461 19.5755L42.8778 10.6102L42.8729 10.6126ZM42.3304 15.8596H40.927L41.3828 14.2706C41.4671 13.9716 41.5612 13.552 41.6335 13.2265C41.7035 13.552 41.7999 13.9716 41.8843 14.2706L42.3304 15.8596Z" fill="#231F20"/>
<path d="M52.6991 10.5306H45.2627C45.1951 10.5306 45.1421 10.5837 45.1421 10.6512V12.532C45.1421 12.5995 45.1951 12.6526 45.2627 12.6526H47.7921V19.6165C47.7921 19.684 47.8452 19.737 47.9127 19.737H50.0491C50.1166 19.737 50.1697 19.684 50.1697 19.6165V12.6526H52.6991C52.7667 12.6526 52.8197 12.5995 52.8197 12.532V10.6512C52.8197 10.5837 52.7667 10.5306 52.6991 10.5306Z" fill="#231F20"/>
<path d="M55.9088 10.5306H53.7724C53.7058 10.5306 53.6519 10.5846 53.6519 10.6512V19.6165C53.6519 19.6831 53.7058 19.737 53.7724 19.737H55.9088C55.9754 19.737 56.0294 19.6831 56.0294 19.6165V10.6512C56.0294 10.5846 55.9754 10.5306 55.9088 10.5306Z" fill="#231F20"/>
<path d="M61.9298 10.3811C59.258 10.3811 57.2422 12.4018 57.2422 15.0783C57.2422 17.7549 59.258 19.8889 61.9298 19.8889C64.6015 19.8889 66.6174 17.82 66.6174 15.0783C66.6174 12.3367 64.6015 10.3811 61.9298 10.3811ZM61.9298 17.6416C60.6759 17.6416 59.6945 16.5155 59.6945 15.0783C59.6945 13.6412 60.6759 12.6284 61.9298 12.6284C63.1837 12.6284 64.1651 13.7039 64.1651 15.0783C64.1651 16.4528 63.1837 17.6416 61.9298 17.6416Z" fill="#231F20"/>
<defs>
<linearGradient id="paint0_linear_1224_16756" x1="67.9868" y1="17.4417" x2="70.0967" y2="17.4417" gradientUnits="userSpaceOnUse">
<stop offset="0.11" stop-color="#AD2724"/>
<stop offset="0.97" stop-color="#EA1881"/>
</linearGradient>
<linearGradient id="paint1_linear_1224_16756" x1="67.9868" y1="14.5167" x2="73.0554" y2="14.5167" gradientUnits="userSpaceOnUse">
<stop stop-color="#0092D2"/>
<stop offset="0.39" stop-color="#0085C5"/>
<stop offset="1" stop-color="#016AAB"/>
</linearGradient>
<linearGradient id="paint2_linear_1224_16756" x1="67.9868" y1="11.4785" x2="70.9986" y2="11.4785" gradientUnits="userSpaceOnUse">
<stop offset="0.12" stop-color="#8DC63F"/>
<stop offset="1" stop-color="#009845"/>
</linearGradient>
<linearGradient id="paint3_linear_1224_16756" x1="72.1679" y1="16.3758" x2="75.2351" y2="16.3758" gradientUnits="userSpaceOnUse">
<stop stop-color="#F89C41"/>
<stop offset="1" stop-color="#FABA3C"/>
</linearGradient>
<linearGradient id="paint4_linear_1224_16756" x1="72.4479" y1="12.2983" x2="75.925" y2="12.2983" gradientUnits="userSpaceOnUse">
<stop stop-color="#AD2724"/>
<stop offset="1" stop-color="#DD1C81"/>
</linearGradient>
</defs>
</svg>
