<svg width="90" height="24" viewBox="0 0 90 24" fill="none" xmlns="http://www.w3.org/2000/svg">
<path d="M32.773 0.761773C32.695 0.695518 32.5859 0.664339 32.4417 0.664339C32.3481 0.664339 32.2468 0.695518 32.1455 0.761773C32.0442 0.82413 31.9545 0.91377 31.8844 1.03069V3.57176H31.2296V1.11253C31.2296 0.944946 31.1906 0.828028 31.1127 0.761773C31.0347 0.695518 30.9217 0.664339 30.7775 0.664339C30.684 0.664339 30.5865 0.699419 30.4852 0.765674C30.3839 0.831929 30.2981 0.917664 30.2241 1.02679V3.57566H29.5693V0.208355H30.115L30.1851 0.485064C30.2865 0.348657 30.4034 0.259016 30.5359 0.216146C30.6684 0.173275 30.7853 0.145996 30.8905 0.145996C31.0815 0.145996 31.2452 0.181068 31.3855 0.25122C31.5258 0.321373 31.6388 0.41491 31.7246 0.53183C31.8415 0.403218 31.974 0.309685 32.1221 0.24343C32.2702 0.177175 32.4144 0.145996 32.5469 0.145996C32.8665 0.145996 33.112 0.231731 33.2835 0.407112C33.455 0.578596 33.5407 0.812444 33.5407 1.10864V3.57566H32.886V1.11643C32.886 0.948847 32.847 0.831929 32.7691 0.765674L32.773 0.761773Z" fill="white"/>
<path d="M37.7033 0.153804C38.0151 0.153804 38.2645 0.247344 38.4516 0.438315L38.5062 0.208372H39.0245V3.57568H38.5334L38.4555 3.30676C38.3737 3.4003 38.2684 3.47825 38.1476 3.5406C38.0268 3.60296 37.8787 3.63025 37.7033 3.63025C37.4656 3.63025 37.2668 3.59906 37.0992 3.5367C36.9316 3.47435 36.7952 3.37302 36.6939 3.23661C36.5887 3.1002 36.5146 2.92092 36.4679 2.69877C36.4211 2.48052 36.3977 2.2116 36.3977 1.89202C36.3977 1.57244 36.4211 1.30742 36.4718 1.08917C36.5224 0.870914 36.5965 0.687745 36.7056 0.54744C36.8108 0.407135 36.9472 0.305805 37.1109 0.243447C37.2746 0.181089 37.4773 0.149902 37.7072 0.149902L37.7033 0.153804ZM37.7033 3.13139C37.8982 3.13139 38.0502 3.1041 38.1593 3.05344C38.2645 3.00277 38.3464 2.92872 38.397 2.83518V0.941065C38.3308 0.847528 38.245 0.773479 38.132 0.722814C38.019 0.672148 37.8787 0.644874 37.7033 0.644874C37.5669 0.644874 37.4539 0.668251 37.3681 0.711122C37.2824 0.753993 37.2161 0.824153 37.1655 0.925484C37.1148 1.02292 37.0836 1.15153 37.0641 1.31132C37.0447 1.47111 37.0369 1.66208 37.0369 1.89202C37.0369 2.12196 37.0447 2.31684 37.0641 2.47273C37.0836 2.62863 37.1148 2.75724 37.1655 2.85857C37.2161 2.9599 37.2824 3.02616 37.3681 3.06903C37.4539 3.1119 37.5669 3.13139 37.7033 3.13139Z" fill="white"/>
<path d="M43.2801 3.62635C43.1281 3.62635 42.9956 3.60297 42.8825 3.5562C42.7695 3.50943 42.6721 3.44707 42.5863 3.36522V4.64355H41.9589V0.208377H42.4538L42.5201 0.450011C42.6994 0.255144 42.9527 0.153809 43.2801 0.153809C43.5139 0.153809 43.7127 0.184984 43.8764 0.247341C44.0401 0.309699 44.1765 0.41103 44.2817 0.551334C44.3869 0.691639 44.4649 0.870923 44.5116 1.09307C44.5623 1.31132 44.5857 1.58024 44.5857 1.89593C44.5857 2.21161 44.5623 2.48053 44.5155 2.70268C44.4688 2.92093 44.3947 3.10021 44.2895 3.24052C44.1843 3.37692 44.0517 3.47825 43.8842 3.54061C43.7166 3.60297 43.5139 3.63414 43.2801 3.63414V3.62635ZM43.2801 0.648768C43.1047 0.648768 42.9605 0.676054 42.8475 0.72672C42.7344 0.777386 42.6487 0.851434 42.5863 0.944971V2.83909C42.637 2.93263 42.7149 3.00668 42.8241 3.05734C42.9332 3.10801 43.0852 3.13528 43.2801 3.13528C43.4165 3.13528 43.5256 3.11579 43.6113 3.07292C43.6971 3.03005 43.7672 2.95991 43.814 2.86247C43.8608 2.76504 43.8958 2.63642 43.9153 2.47663C43.9348 2.31684 43.9426 2.12587 43.9426 1.89593C43.9426 1.66598 43.9348 1.47502 43.9153 1.31522C43.8958 1.15543 43.8647 1.03071 43.814 0.929378C43.7633 0.831944 43.6971 0.761797 43.6113 0.715028C43.5256 0.672157 43.4126 0.648768 43.2801 0.648768Z" fill="white"/>
<path d="M48.1402 2.97159C48.2494 3.06903 48.3975 3.1197 48.5728 3.1197C48.7365 3.1197 48.8729 3.08072 48.9821 3.00667C49.0912 2.93262 49.1458 2.81959 49.1458 2.6637C49.1458 2.58186 49.1302 2.5117 49.1029 2.45714C49.0756 2.40258 49.0366 2.35581 48.9899 2.32073C48.9431 2.28565 48.8885 2.25447 48.8262 2.23109C48.7638 2.2077 48.6976 2.18433 48.6313 2.15705L48.1909 2.00505C47.9298 1.91151 47.7271 1.78679 47.5868 1.63479C47.4465 1.4828 47.3725 1.28793 47.3725 1.0424C47.3725 0.757893 47.4738 0.53964 47.6803 0.383746C47.8869 0.227852 48.1636 0.149902 48.5183 0.149902C48.8729 0.149902 49.1691 0.231757 49.3757 0.391548C49.5823 0.55134 49.6953 0.816359 49.707 1.18271H49.0522C49.0444 1.01512 48.9977 0.886504 48.9041 0.796864C48.8145 0.707225 48.6859 0.660455 48.5222 0.660455C48.3585 0.660455 48.2416 0.695535 48.1519 0.76179C48.0623 0.828045 48.0155 0.933272 48.0155 1.07747C48.0155 1.14763 48.0272 1.20609 48.0506 1.25286C48.074 1.30353 48.1091 1.3464 48.1558 1.38537C48.2026 1.42434 48.2611 1.45941 48.3351 1.49059C48.4053 1.52177 48.491 1.55685 48.5884 1.58803L49.0249 1.73613C49.1302 1.7751 49.2315 1.82187 49.325 1.87254C49.4186 1.9232 49.5043 1.98166 49.5745 2.05181C49.6446 2.12196 49.6992 2.20381 49.742 2.29735C49.7849 2.39088 49.8005 2.50391 49.8005 2.63642C49.8005 2.79621 49.7693 2.93652 49.707 3.05734C49.6446 3.17815 49.5589 3.28338 49.4497 3.36912C49.3406 3.45486 49.2081 3.52112 49.0561 3.56399C48.9041 3.60686 48.7365 3.63025 48.5611 3.63025C48.1363 3.63025 47.8245 3.52501 47.6297 3.31845C47.4348 3.11189 47.3335 2.83129 47.3257 2.48442H47.9649C47.9726 2.71437 48.0311 2.87805 48.1441 2.97548L48.1402 2.97159Z" fill="white"/>
<path d="M53.1951 2.0791C53.1951 2.27396 53.2107 2.43766 53.234 2.57017C53.2574 2.70268 53.2964 2.8157 53.3471 2.89754C53.3977 2.97939 53.464 3.04174 53.5497 3.07682C53.6316 3.11189 53.7368 3.13139 53.8615 3.13139C54.111 3.13139 54.2863 3.06903 54.3838 2.94431C54.4812 2.81959 54.5319 2.64032 54.5397 2.41037H55.1788C55.1477 2.82739 55.0229 3.13528 54.8086 3.33405C54.5942 3.53281 54.2785 3.63025 53.8615 3.63025C53.6238 3.63025 53.425 3.59906 53.2574 3.5367C53.0898 3.47435 52.9534 3.37302 52.8521 3.23661C52.7469 3.1002 52.6728 2.92092 52.6261 2.69877C52.5793 2.48052 52.5559 2.2116 52.5559 1.89202C52.5559 1.57244 52.5793 1.30742 52.63 1.08917C52.6806 0.870914 52.7547 0.687745 52.8599 0.54744C52.9651 0.407135 53.1015 0.305805 53.2652 0.243447C53.4289 0.181089 53.6316 0.149902 53.8615 0.149902C54.0603 0.149902 54.2435 0.177189 54.4032 0.227854C54.5669 0.27852 54.7033 0.368156 54.8164 0.492871C54.9294 0.617587 55.0151 0.789069 55.0775 1.00342C55.136 1.21778 55.1671 1.4906 55.1671 1.82187V2.0791H53.199H53.1951ZM53.8615 0.648763C53.7407 0.648763 53.6394 0.664354 53.5614 0.699431C53.4835 0.734507 53.4172 0.785174 53.3666 0.859223C53.3159 0.933273 53.2769 1.02681 53.2535 1.14373C53.2302 1.26066 53.2107 1.40096 53.2029 1.56854H54.5358C54.528 1.41265 54.5124 1.27624 54.489 1.15932C54.4656 1.04239 54.4266 0.948862 54.376 0.870915C54.3253 0.796865 54.259 0.742305 54.1733 0.703332C54.0876 0.664358 53.9862 0.648763 53.8615 0.648763Z" fill="white"/>
<path d="M59.2554 0.153804C59.5672 0.153804 59.8167 0.247344 60.0037 0.438315L60.0583 0.208372H60.5766V3.57568H60.0856L60.0076 3.30676C59.9258 3.4003 59.8206 3.47825 59.6997 3.5406C59.5789 3.60296 59.4308 3.63025 59.2554 3.63025C59.0177 3.63025 58.8189 3.59906 58.6513 3.5367C58.4838 3.47435 58.3474 3.37302 58.246 3.23661C58.1408 3.1002 58.0667 2.92092 58.02 2.69877C57.9732 2.48052 57.9498 2.2116 57.9498 1.89202C57.9498 1.57244 57.9732 1.30742 58.0239 1.08917C58.0745 0.870914 58.1486 0.687745 58.2577 0.54744C58.363 0.407135 58.4994 0.305805 58.6631 0.243447C58.8267 0.181089 59.0294 0.149902 59.2593 0.149902L59.2554 0.153804ZM59.2554 3.13139C59.4503 3.13139 59.6023 3.1041 59.7114 3.05344C59.8167 3.00277 59.8985 2.92872 59.9492 2.83518V0.941065C59.8829 0.847528 59.7972 0.773479 59.6842 0.722814C59.5711 0.672148 59.4308 0.644874 59.2554 0.644874C59.119 0.644874 59.006 0.668251 58.9203 0.711122C58.8345 0.753993 58.7683 0.824153 58.7176 0.925484C58.6669 1.02292 58.6358 1.15153 58.6163 1.31132C58.5968 1.47111 58.589 1.66208 58.589 1.89202C58.589 2.12196 58.5968 2.31684 58.6163 2.47273C58.6358 2.62863 58.6669 2.75724 58.7176 2.85857C58.7683 2.9599 58.8345 3.02616 58.9203 3.06903C59.006 3.1119 59.119 3.13139 59.2554 3.13139Z" fill="white"/>
<path d="M80.5928 22.3511C80.5928 22.5969 80.77 22.7741 81.0158 22.7741H82.6708C82.9167 22.7741 83.0939 22.5969 83.0939 22.3511V19.9329L80.5928 18.8667V22.3482V22.3511Z" fill="url(#paint0_linear_1224_21066)"/>
<path d="M84.5745 14.5249L80.5928 16.3286V17.9378L83.0939 19.004V16.4772L85.1033 20.1845L86.6011 18.2608L84.5745 14.5249Z" fill="url(#paint1_linear_1224_21066)"/>
<path d="M83.4055 12.3668C83.3112 12.2039 83.1597 12.1182 82.9653 12.1182H81.0187C80.7729 12.1182 80.5957 12.2954 80.5957 12.5412V15.3882L84.1658 13.7703L83.4055 12.3697V12.3668Z" fill="url(#paint2_linear_1224_21066)"/>
<path d="M85.5491 21.0048L86.3723 22.5226C86.4667 22.6884 86.6182 22.777 86.8125 22.777H88.7591C89.0049 22.777 89.1821 22.5997 89.1821 22.3539V16.3398L85.5463 21.0048H85.5491Z" fill="url(#paint3_linear_1224_21066)"/>
<path d="M89.9713 13.2241L88.0305 11.3376C87.9848 11.2833 87.9019 11.2833 87.8533 11.3376L85.9096 13.2241C85.8438 13.3013 85.8953 13.4185 85.9982 13.4185H86.6842V18.152L89.1853 14.9421V13.4185H89.8827C89.9828 13.4185 90.0371 13.2985 89.9713 13.2241Z" fill="url(#paint4_linear_1224_21066)"/>
<path d="M8.8839 12.6294H6.35137C6.27133 12.6294 6.20845 12.6923 6.20845 12.7723V17.7374C6.20845 18.0404 6.23131 18.4377 6.25703 18.7835C6.0941 18.4262 5.8883 18.0032 5.69393 17.6659L2.82695 12.7009C2.80123 12.658 2.7555 12.6294 2.70404 12.6294H0.14292C0.0628848 12.6294 0 12.6923 0 12.7723V23.3999C0 23.4799 0.0628848 23.5428 0.14292 23.5428H2.67546C2.75549 23.5428 2.81838 23.4799 2.81838 23.3999V18.4491C2.81838 18.1461 2.79552 17.7488 2.76979 17.4029C2.93272 17.7602 3.13852 18.1833 3.3329 18.5206L6.21416 23.4713C6.23989 23.5142 6.28562 23.5428 6.33707 23.5428H8.8839C8.96394 23.5428 9.02682 23.4799 9.02682 23.3999V12.7723C9.02682 12.6923 8.96394 12.6294 8.8839 12.6294Z" fill="white"/>
<path d="M16.356 12.7266C16.336 12.6694 16.2817 12.6294 16.2217 12.6294H13.5576C13.4947 12.6294 13.4404 12.6694 13.4233 12.7266L9.90459 23.3541C9.8903 23.397 9.89887 23.4456 9.9246 23.4828C9.95033 23.5199 9.99606 23.5428 10.0418 23.5428H12.6487C12.7115 23.5428 12.7687 23.4999 12.7859 23.437L13.3804 21.3104H16.3932L16.9991 23.437C17.0163 23.497 17.0735 23.5399 17.1363 23.5399H19.7432C19.7889 23.5399 19.8318 23.5171 19.8604 23.4799C19.889 23.4427 19.8947 23.3941 19.8804 23.3513L16.3617 12.7237L16.356 12.7266ZM15.7129 18.9465H14.0493L14.5895 17.0628C14.6896 16.7083 14.801 16.211 14.8868 15.8251C14.9697 16.211 15.084 16.7083 15.1841 17.0628L15.7129 18.9465Z" fill="white"/>
<path d="M29.1755 12.6294H26.4686C26.4057 12.6294 26.3514 12.6694 26.3314 12.7294L24.4791 18.7807C24.3791 19.1123 24.2819 19.5296 24.2105 19.8697C24.139 19.5296 24.0418 19.1123 23.9418 18.7807L22.1181 12.7323C22.101 12.6723 22.0438 12.6294 21.9809 12.6294H19.2311C19.1854 12.6294 19.1425 12.6523 19.1139 12.6894C19.0882 12.7266 19.0796 12.7752 19.0939 12.8181L22.7555 23.4456C22.7755 23.5028 22.8298 23.5428 22.8899 23.5428H25.5253C25.5853 23.5428 25.6397 23.5028 25.6597 23.4456L29.307 12.8181C29.3213 12.7752 29.3156 12.7266 29.287 12.6894C29.2584 12.6523 29.2155 12.6294 29.1698 12.6294H29.1755Z" fill="white"/>
<path d="M32.8376 12.6294H30.305C30.2261 12.6294 30.1621 12.6934 30.1621 12.7723V23.3999C30.1621 23.4788 30.2261 23.5428 30.305 23.5428H32.8376C32.9165 23.5428 32.9805 23.4788 32.9805 23.3999V12.7723C32.9805 12.6934 32.9165 12.6294 32.8376 12.6294Z" fill="white"/>
<path d="M44.648 17.6684C44.648 17.4168 44.465 17.231 44.2106 17.231H39.6515C39.4 17.231 39.2142 17.414 39.2142 17.6684V19.1319C39.2142 19.3834 39.3971 19.5692 39.6515 19.5692H42.1097C41.9582 20.6268 40.9978 21.3243 39.6515 21.3243C37.8221 21.3243 36.4958 20.0151 36.4958 18.2143C36.4958 16.4135 37.8078 15.0872 39.5457 15.0872C40.3518 15.0872 41.0693 15.3588 41.7324 15.9133C41.9297 16.0848 42.184 16.0619 42.3527 15.8676L43.376 14.7842C43.6304 14.467 43.476 14.2269 43.3617 14.1125C42.3613 13.0949 41.035 12.5547 39.5286 12.5547C36.3643 12.5547 33.8861 15.0415 33.8861 18.2115C33.8861 21.3814 36.3843 23.854 39.5743 23.854C42.5585 23.854 44.6451 21.713 44.6451 18.6488V17.6684H44.648Z" fill="white"/>
<path d="M50.8222 12.7266C50.8022 12.6694 50.7479 12.6294 50.6878 12.6294H48.0238C47.9609 12.6294 47.9066 12.6694 47.8895 12.7266L44.3708 23.3541C44.3565 23.397 44.3651 23.4456 44.3908 23.4828C44.4165 23.5199 44.4622 23.5428 44.508 23.5428H47.1148C47.1777 23.5428 47.2349 23.4999 47.252 23.437L47.8466 21.3104H50.8593L51.4653 23.437C51.4825 23.497 51.5396 23.5399 51.6025 23.5399H54.2094C54.2551 23.5399 54.298 23.5171 54.3266 23.4799C54.3552 23.4427 54.3609 23.3941 54.3466 23.3513L50.8279 12.7237L50.8222 12.7266ZM50.179 18.9465H48.5155L49.0557 17.0628C49.1557 16.7083 49.2672 16.211 49.353 15.8251C49.4359 16.211 49.5502 16.7083 49.6502 17.0628L50.179 18.9465Z" fill="white"/>
<path d="M62.4703 12.6294H53.655C53.575 12.6294 53.5121 12.6923 53.5121 12.7723V15.0019C53.5121 15.0819 53.575 15.1448 53.655 15.1448H56.6535V23.3999C56.6535 23.4799 56.7163 23.5428 56.7964 23.5428H59.3289C59.409 23.5428 59.4719 23.4799 59.4719 23.3999V15.1448H62.4703C62.5503 15.1448 62.6132 15.0819 62.6132 15.0019V12.7723C62.6132 12.6923 62.5503 12.6294 62.4703 12.6294Z" fill="white"/>
<path d="M66.2751 12.6294H63.7425C63.6636 12.6294 63.5996 12.6934 63.5996 12.7723V23.3999C63.5996 23.4788 63.6636 23.5428 63.7425 23.5428H66.2751C66.354 23.5428 66.418 23.4788 66.418 23.3999V12.7723C66.418 12.6934 66.354 12.6294 66.2751 12.6294Z" fill="white"/>
<path d="M73.4124 12.4521C70.2453 12.4521 67.8557 14.8475 67.8557 18.0203C67.8557 21.1932 70.2453 23.7228 73.4124 23.7228C76.5796 23.7228 78.9692 21.2703 78.9692 18.0203C78.9692 14.7703 76.5796 12.4521 73.4124 12.4521ZM73.4124 21.0588C71.9261 21.0588 70.7627 19.7239 70.7627 18.0203C70.7627 16.3167 71.9261 15.1162 73.4124 15.1162C74.8988 15.1162 76.0622 16.391 76.0622 18.0203C76.0622 19.6496 74.8988 21.0588 73.4124 21.0588Z" fill="white"/>
<defs>
<linearGradient id="paint0_linear_1224_21066" x1="80.5928" y1="20.8218" x2="83.0939" y2="20.8218" gradientUnits="userSpaceOnUse">
<stop offset="0.11" stop-color="#AD2724"/>
<stop offset="0.97" stop-color="#EA1881"/>
</linearGradient>
<linearGradient id="paint1_linear_1224_21066" x1="80.5928" y1="17.3547" x2="86.6011" y2="17.3547" gradientUnits="userSpaceOnUse">
<stop stop-color="#0092D2"/>
<stop offset="0.39" stop-color="#0085C5"/>
<stop offset="1" stop-color="#016AAB"/>
</linearGradient>
<linearGradient id="paint2_linear_1224_21066" x1="80.5928" y1="13.7532" x2="84.163" y2="13.7532" gradientUnits="userSpaceOnUse">
<stop offset="0.12" stop-color="#8DC63F"/>
<stop offset="1" stop-color="#009845"/>
</linearGradient>
<linearGradient id="paint3_linear_1224_21066" x1="85.5491" y1="19.5584" x2="89.185" y2="19.5584" gradientUnits="userSpaceOnUse">
<stop stop-color="#F89C41"/>
<stop offset="1" stop-color="#FABA3C"/>
</linearGradient>
<linearGradient id="paint4_linear_1224_21066" x1="85.881" y1="14.7248" x2="90.0028" y2="14.7248" gradientUnits="userSpaceOnUse">
<stop stop-color="#AD2724"/>
<stop offset="1" stop-color="#DD1C81"/>
</linearGradient>
</defs>
</svg>
