<svg width="112" height="30" viewBox="0 0 112 30" fill="none" xmlns="http://www.w3.org/2000/svg">
<path d="M40.7844 1.01435C40.6874 0.931899 40.5515 0.893098 40.3721 0.893098C40.2557 0.893098 40.1296 0.931899 40.0035 1.01435C39.8774 1.09195 39.7658 1.2035 39.6785 1.34901V4.51124H38.8637V1.45085C38.8637 1.2423 38.8152 1.0968 38.7182 1.01435C38.6212 0.931899 38.4806 0.893098 38.3011 0.893098C38.1847 0.893098 38.0635 0.936754 37.9374 1.0192C37.8113 1.10166 37.7046 1.20835 37.6124 1.34415V4.51609H36.7976V0.32565H37.4766L37.5639 0.67C37.69 0.500248 37.8355 0.388695 38.0004 0.335344C38.1653 0.281994 38.3108 0.248047 38.4418 0.248047C38.6794 0.248047 38.8831 0.291692 39.0577 0.378993C39.2323 0.466294 39.373 0.582696 39.4797 0.728198C39.6252 0.568146 39.7901 0.451749 39.9744 0.369298C40.1587 0.286847 40.3382 0.248047 40.5031 0.248047C40.9008 0.248047 41.2063 0.35474 41.4197 0.572993C41.6331 0.786395 41.7398 1.07741 41.7398 1.44601V4.51609H40.925V1.45571C40.925 1.24715 40.8765 1.10166 40.7795 1.0192L40.7844 1.01435Z" fill="white"/>
<path d="M46.92 0.257784C47.308 0.257784 47.6185 0.374191 47.8513 0.611844L47.9192 0.325692H48.5642V4.51614H47.9531L47.8561 4.18148C47.7543 4.29788 47.6233 4.39489 47.473 4.47249C47.3226 4.55009 47.1383 4.58404 46.92 4.58404C46.6242 4.58404 46.3768 4.54523 46.1683 4.46763C45.9597 4.39003 45.79 4.26394 45.6639 4.09418C45.5329 3.92443 45.4408 3.70133 45.3826 3.42487C45.3244 3.15327 45.2953 2.81861 45.2953 2.42091C45.2953 2.0232 45.3244 1.6934 45.3874 1.4218C45.4505 1.15019 45.5426 0.922247 45.6784 0.747645C45.8094 0.573043 45.9791 0.446942 46.1828 0.369341C46.3865 0.29174 46.6387 0.25293 46.9249 0.25293L46.92 0.257784ZM46.92 3.96324C47.1625 3.96324 47.3517 3.92928 47.4875 3.86623C47.6185 3.80318 47.7203 3.71103 47.7834 3.59463V1.23749C47.7009 1.12109 47.5942 1.02894 47.4536 0.965889C47.3129 0.902838 47.1383 0.868897 46.92 0.868897C46.7503 0.868897 46.6096 0.897989 46.5029 0.95134C46.3962 1.00469 46.3138 1.092 46.2507 1.2181C46.1877 1.33935 46.1489 1.4994 46.1246 1.69825C46.1004 1.89711 46.0907 2.13475 46.0907 2.42091C46.0907 2.70706 46.1004 2.94957 46.1246 3.14358C46.1489 3.33758 46.1877 3.49763 46.2507 3.62373C46.3138 3.74983 46.3962 3.83228 46.5029 3.88563C46.6096 3.93899 46.7503 3.96324 46.92 3.96324Z" fill="white"/>
<path d="M53.8602 4.57873C53.671 4.57873 53.5061 4.54963 53.3655 4.49143C53.2248 4.43323 53.1036 4.35562 52.9969 4.25377V5.84459H52.216V0.325232H52.832L52.9144 0.625933C53.1375 0.38343 53.4528 0.257324 53.8602 0.257324C54.1512 0.257324 54.3985 0.29612 54.6022 0.373721C54.8059 0.451322 54.9757 0.577423 55.1066 0.752025C55.2376 0.926627 55.3346 1.14974 55.3928 1.42619C55.4558 1.69779 55.4849 2.03245 55.4849 2.4253C55.4849 2.81816 55.4558 3.15281 55.3976 3.42927C55.3394 3.70087 55.2473 3.92398 55.1163 4.09858C54.9854 4.26833 54.8205 4.39443 54.6119 4.47203C54.4034 4.54963 54.1512 4.58842 53.8602 4.58842V4.57873ZM53.8602 0.873276C53.6419 0.873276 53.4625 0.907233 53.3218 0.970284C53.1812 1.03333 53.0745 1.12548 52.9969 1.24189V3.59902C53.0599 3.71542 53.1569 3.80757 53.2927 3.87062C53.4285 3.93368 53.6177 3.96762 53.8602 3.96762C54.0299 3.96762 54.1657 3.94336 54.2724 3.89001C54.3791 3.83666 54.4664 3.74937 54.5246 3.62812C54.5828 3.50687 54.6265 3.34681 54.6507 3.14796C54.675 2.9491 54.6847 2.71145 54.6847 2.4253C54.6847 2.13915 54.675 1.9015 54.6507 1.70265C54.6265 1.50379 54.5877 1.34858 54.5246 1.22248C54.4616 1.10123 54.3791 1.01393 54.2724 0.955734C54.1657 0.902383 54.0251 0.873276 53.8602 0.873276Z" fill="white"/>
<path d="M59.9083 3.76438C60.0441 3.88563 60.2284 3.94869 60.4467 3.94869C60.6504 3.94869 60.8201 3.90018 60.9559 3.80803C61.0917 3.71588 61.1596 3.57523 61.1596 3.38122C61.1596 3.27937 61.1402 3.19207 61.1063 3.12417C61.0723 3.05627 61.0238 2.99807 60.9656 2.95442C60.9074 2.91077 60.8395 2.87196 60.7619 2.84286C60.6843 2.81376 60.6019 2.78467 60.5194 2.75072L59.9714 2.56156C59.6464 2.44516 59.3942 2.28995 59.2196 2.1008C59.045 1.91165 58.9529 1.66915 58.9529 1.3636C58.9529 1.00954 59.079 0.737939 59.336 0.543936C59.5931 0.349934 59.9374 0.25293 60.3788 0.25293C60.8201 0.25293 61.1887 0.354793 61.4458 0.553646C61.7028 0.752498 61.8435 1.0823 61.858 1.53821H61.0432C61.0335 1.32965 60.9753 1.16959 60.8589 1.05804C60.7474 0.94649 60.5873 0.888286 60.3836 0.888286C60.1799 0.888286 60.0344 0.931942 59.9229 1.01439C59.8113 1.09684 59.7531 1.22779 59.7531 1.40725C59.7531 1.49455 59.7677 1.5673 59.7968 1.6255C59.8259 1.68856 59.8695 1.7419 59.9277 1.79041C59.9859 1.83891 60.0587 1.88255 60.1508 1.92135C60.2381 1.96015 60.3448 2.0038 60.4661 2.0426L61.0093 2.22691C61.1402 2.27541 61.2663 2.33361 61.3827 2.39666C61.4991 2.45971 61.6058 2.53246 61.6931 2.61976C61.7804 2.70706 61.8483 2.80892 61.9017 2.92532C61.955 3.04172 61.9744 3.18237 61.9744 3.34727C61.9744 3.54612 61.9356 3.72073 61.858 3.87109C61.7804 4.02144 61.6737 4.15238 61.5379 4.25908C61.4021 4.36579 61.2372 4.44824 61.0481 4.50159C60.8589 4.55494 60.6504 4.58404 60.4321 4.58404C59.9035 4.58404 59.5155 4.45308 59.273 4.19603C59.0305 3.93898 58.9044 3.58978 58.8947 3.15813H59.6901C59.6998 3.44428 59.7725 3.64797 59.9132 3.76922L59.9083 3.76438Z" fill="white"/>
<path d="M66.1988 2.65372C66.1988 2.89622 66.2182 3.09993 66.2473 3.26483C66.2764 3.42973 66.3249 3.57038 66.3879 3.67223C66.451 3.77408 66.5334 3.85168 66.6401 3.89533C66.742 3.93898 66.873 3.96324 67.0282 3.96324C67.3386 3.96324 67.5568 3.88563 67.6781 3.73043C67.7993 3.57523 67.8624 3.35213 67.8721 3.06597H68.6675C68.6287 3.58493 68.4735 3.96808 68.2067 4.21544C67.94 4.46279 67.5471 4.58404 67.0282 4.58404C66.7323 4.58404 66.4849 4.54523 66.2764 4.46763C66.0678 4.39003 65.8981 4.26394 65.772 4.09418C65.641 3.92443 65.5489 3.70133 65.4907 3.42487C65.4325 3.15327 65.4034 2.81861 65.4034 2.42091C65.4034 2.0232 65.4325 1.6934 65.4955 1.4218C65.5586 1.15019 65.6507 0.922247 65.7817 0.747645C65.9126 0.573043 66.0824 0.446942 66.2861 0.369341C66.4898 0.29174 66.742 0.25293 67.0282 0.25293C67.2755 0.25293 67.5035 0.286886 67.7023 0.349937C67.906 0.412988 68.0758 0.524535 68.2164 0.679737C68.3571 0.834939 68.4638 1.04834 68.5414 1.31509C68.6141 1.58185 68.6529 1.92135 68.6529 2.33361V2.65372H66.2036H66.1988ZM67.0282 0.873737C66.8778 0.873737 66.7517 0.893139 66.6547 0.93679C66.5577 0.98044 66.4752 1.04349 66.4122 1.13564C66.3491 1.2278 66.3006 1.3442 66.2715 1.4897C66.2424 1.63521 66.2182 1.80981 66.2085 2.01836H67.8672C67.8575 1.82436 67.8381 1.6546 67.809 1.50909C67.7799 1.36359 67.7314 1.24719 67.6684 1.15019C67.6053 1.05804 67.5229 0.990145 67.4162 0.941645C67.3095 0.893144 67.1834 0.873737 67.0282 0.873737Z" fill="white"/>
<path d="M73.7407 0.257784C74.1287 0.257784 74.4391 0.374191 74.6719 0.611844L74.7398 0.325692H75.3848V4.51614H74.7737L74.6767 4.18148C74.5749 4.29788 74.4439 4.39489 74.2936 4.47249C74.1432 4.55009 73.9589 4.58404 73.7407 4.58404C73.4448 4.58404 73.1975 4.54523 72.9889 4.46763C72.7804 4.39003 72.6106 4.26394 72.4845 4.09418C72.3536 3.92443 72.2614 3.70133 72.2032 3.42487C72.145 3.15327 72.1159 2.81861 72.1159 2.42091C72.1159 2.0232 72.145 1.6934 72.2081 1.4218C72.2711 1.15019 72.3633 0.922247 72.4991 0.747645C72.63 0.573043 72.7998 0.446942 73.0035 0.369341C73.2072 0.29174 73.4594 0.25293 73.7455 0.25293L73.7407 0.257784ZM73.7407 3.96324C73.9832 3.96324 74.1723 3.92928 74.3081 3.86623C74.4391 3.80318 74.5409 3.71103 74.604 3.59463V1.23749C74.5215 1.12109 74.4148 1.02894 74.2742 0.965889C74.1335 0.902838 73.9589 0.868897 73.7407 0.868897C73.5709 0.868897 73.4303 0.897989 73.3236 0.95134C73.2169 1.00469 73.1344 1.092 73.0714 1.2181C73.0083 1.33935 72.9695 1.4994 72.9453 1.69825C72.921 1.89711 72.9113 2.13475 72.9113 2.42091C72.9113 2.70706 72.921 2.94957 72.9453 3.14358C72.9695 3.33758 73.0083 3.49763 73.0714 3.62373C73.1344 3.74983 73.2169 3.83228 73.3236 3.88563C73.4303 3.93899 73.5709 3.96324 73.7407 3.96324Z" fill="white"/>
<path d="M100.293 27.8811C100.293 28.187 100.514 28.4075 100.82 28.4075H102.879C103.185 28.4075 103.406 28.187 103.406 27.8811V24.8717L100.293 23.5449V27.8775V27.8811Z" fill="url(#paint0_linear_1224_20995)"/>
<path d="M105.248 18.1416L100.293 20.3862V22.3888L103.406 23.7156V20.5711L105.906 25.1847L107.77 22.7908L105.248 18.1416Z" fill="url(#paint1_linear_1224_20995)"/>
<path d="M103.793 15.456C103.676 15.2532 103.488 15.1465 103.246 15.1465H100.823C100.517 15.1465 100.297 15.367 100.297 15.6729V19.2159L104.74 17.2025L103.793 15.4595V15.456Z" fill="url(#paint2_linear_1224_20995)"/>
<path d="M106.461 26.2056L107.486 28.0945C107.603 28.3008 107.792 28.4111 108.033 28.4111H110.456C110.762 28.4111 110.982 28.1905 110.982 27.8846V20.4004L106.458 26.2056H106.461Z" fill="url(#paint3_linear_1224_20995)"/>
<path d="M111.964 16.5229L109.549 14.1752C109.492 14.1076 109.389 14.1076 109.328 14.1752L106.91 16.5229C106.828 16.6189 106.892 16.7648 107.02 16.7648H107.874V22.6554L110.986 18.6607V16.7648H111.854C111.979 16.7648 112.046 16.6154 111.964 16.5229Z" fill="url(#paint4_linear_1224_20995)"/>
<path d="M11.0556 15.7827H7.90395C7.80435 15.7827 7.7261 15.861 7.7261 15.9606V22.1393C7.7261 22.5164 7.75455 23.0108 7.78656 23.4412C7.58381 22.9966 7.32769 22.4701 7.08581 22.0504L3.518 15.8716C3.48599 15.8183 3.42908 15.7827 3.36505 15.7827H0.177857C0.078257 15.7827 0 15.861 0 15.9606V29.186C0 29.2856 0.078257 29.3639 0.177857 29.3639H3.32947C3.42907 29.3639 3.50733 29.2856 3.50733 29.186V23.0251C3.50733 22.648 3.47888 22.1536 3.44686 21.7231C3.64962 22.1678 3.90574 22.6942 4.14762 23.114L7.73321 29.2749C7.76522 29.3283 7.82213 29.3639 7.88616 29.3639H11.0556C11.1552 29.3639 11.2334 29.2856 11.2334 29.186V15.9606C11.2334 15.861 11.1552 15.7827 11.0556 15.7827Z" fill="white"/>
<path d="M20.3543 15.9037C20.3294 15.8325 20.2618 15.7827 20.1871 15.7827H16.8718C16.7936 15.7827 16.726 15.8325 16.7047 15.9037L12.3258 29.1291C12.308 29.1825 12.3187 29.2429 12.3507 29.2892C12.3827 29.3354 12.4397 29.3639 12.4966 29.3639H15.7407C15.8189 29.3639 15.8901 29.3105 15.9114 29.2323L16.6513 26.5857H20.4005L21.1546 29.2323C21.176 29.307 21.2471 29.3603 21.3254 29.3603H24.5695C24.6264 29.3603 24.6798 29.3319 24.7153 29.2856C24.7509 29.2394 24.758 29.1789 24.7402 29.1256L20.3614 15.9001L20.3543 15.9037ZM19.5539 23.644H17.4837L18.156 21.2998C18.2805 20.8588 18.4192 20.2398 18.5259 19.7596C18.6291 20.2398 18.7714 20.8588 18.8959 21.2998L19.5539 23.644Z" fill="white"/>
<path d="M36.3074 15.7827H32.9388C32.8605 15.7827 32.7929 15.8325 32.768 15.9072L30.463 23.4377C30.3385 23.8503 30.2176 24.3696 30.1286 24.7929C30.0397 24.3696 29.9188 23.8503 29.7943 23.4377L27.5248 15.9108C27.5035 15.8361 27.4323 15.7827 27.3541 15.7827H23.9321C23.8752 15.7827 23.8218 15.8112 23.7863 15.8574C23.7543 15.9037 23.7436 15.9641 23.7614 16.0175L28.3181 29.2429C28.343 29.3141 28.4106 29.3639 28.4853 29.3639H31.7649C31.8396 29.3639 31.9072 29.3141 31.9321 29.2429L36.471 16.0175C36.4888 15.9641 36.4817 15.9037 36.4461 15.8574C36.4106 15.8112 36.3572 15.7827 36.3003 15.7827H36.3074Z" fill="white"/>
<path d="M40.8646 15.7827H37.713C37.6148 15.7827 37.5352 15.8623 37.5352 15.9606V29.186C37.5352 29.2842 37.6148 29.3639 37.713 29.3639H40.8646C40.9629 29.3639 41.0425 29.2842 41.0425 29.186V15.9606C41.0425 15.8623 40.9629 15.7827 40.8646 15.7827Z" fill="white"/>
<path d="M55.5622 22.0542C55.5622 21.7411 55.3346 21.5099 55.018 21.5099H49.3444C49.0313 21.5099 48.8001 21.7376 48.8001 22.0542V23.8754C48.8001 24.1884 49.0278 24.4197 49.3444 24.4197H52.4035C52.215 25.7358 51.0198 26.6037 49.3444 26.6037C47.0678 26.6037 45.4173 24.9746 45.4173 22.7336C45.4173 20.4926 47.05 18.8421 49.2128 18.8421C50.2159 18.8421 51.1087 19.18 51.934 19.8701C52.1794 20.0835 52.496 20.055 52.7058 19.8132L53.9793 18.465C54.2959 18.0702 54.1038 17.7714 53.9615 17.6291C52.7165 16.3627 51.066 15.6904 49.1914 15.6904C45.2537 15.6904 42.1696 18.7851 42.1696 22.73C42.1696 26.6749 45.2786 29.7518 49.2483 29.7518C52.962 29.7518 55.5587 27.0875 55.5587 23.2743V22.0542H55.5622Z" fill="white"/>
<path d="M63.2456 15.9037C63.2207 15.8325 63.1532 15.7827 63.0785 15.7827H59.7632C59.6849 15.7827 59.6174 15.8325 59.596 15.9037L55.2172 29.1291C55.1994 29.1825 55.2101 29.2429 55.2421 29.2892C55.2741 29.3354 55.331 29.3639 55.3879 29.3639H58.632C58.7103 29.3639 58.7814 29.3105 58.8028 29.2323L59.5427 26.5857H63.2919L64.046 29.2323C64.0673 29.307 64.1385 29.3603 64.2167 29.3603H67.4609C67.5178 29.3603 67.5711 29.3319 67.6067 29.2856C67.6423 29.2394 67.6494 29.1789 67.6316 29.1256L63.2528 15.9001L63.2456 15.9037ZM62.4453 23.644H60.375L61.0473 21.2998C61.1718 20.8588 61.3106 20.2398 61.4173 19.7596C61.5204 20.2398 61.6627 20.8588 61.7872 21.2998L62.4453 23.644Z" fill="white"/>
<path d="M77.7411 15.7827H66.7709C66.6713 15.7827 66.5931 15.861 66.5931 15.9606V18.7351C66.5931 18.8347 66.6713 18.913 66.7709 18.913H70.5024V29.186C70.5024 29.2856 70.5806 29.3639 70.6802 29.3639H73.8319C73.9315 29.3639 74.0097 29.2856 74.0097 29.186V18.913H77.7411C77.8407 18.913 77.919 18.8347 77.919 18.7351V15.9606C77.919 15.861 77.8407 15.7827 77.7411 15.7827Z" fill="white"/>
<path d="M82.476 15.7827H79.3244C79.2262 15.7827 79.1465 15.8623 79.1465 15.9606V29.186C79.1465 29.2842 79.2262 29.3639 79.3244 29.3639H82.476C82.5742 29.3639 82.6539 29.2842 82.6539 29.186V15.9606C82.6539 15.8623 82.5742 15.7827 82.476 15.7827Z" fill="white"/>
<path d="M91.3581 15.5625C87.4168 15.5625 84.443 18.5434 84.443 22.4918C84.443 26.4402 87.4168 29.5883 91.3581 29.5883C95.2994 29.5883 98.2731 26.5363 98.2731 22.4918C98.2731 18.4473 95.2994 15.5625 91.3581 15.5625ZM91.3581 26.273C89.5084 26.273 88.0606 24.6119 88.0606 22.4918C88.0606 20.3718 89.5084 18.8778 91.3581 18.8778C93.2078 18.8778 94.6555 20.4642 94.6555 22.4918C94.6555 24.5194 93.2078 26.273 91.3581 26.273Z" fill="white"/>
<defs>
<linearGradient id="paint0_linear_1224_20995" x1="100.293" y1="25.978" x2="103.406" y2="25.978" gradientUnits="userSpaceOnUse">
<stop offset="0.11" stop-color="#AD2724"/>
<stop offset="0.97" stop-color="#EA1881"/>
</linearGradient>
<linearGradient id="paint1_linear_1224_20995" x1="100.293" y1="21.6632" x2="107.77" y2="21.6632" gradientUnits="userSpaceOnUse">
<stop stop-color="#0092D2"/>
<stop offset="0.39" stop-color="#0085C5"/>
<stop offset="1" stop-color="#016AAB"/>
</linearGradient>
<linearGradient id="paint2_linear_1224_20995" x1="100.293" y1="17.1812" x2="104.736" y2="17.1812" gradientUnits="userSpaceOnUse">
<stop offset="0.12" stop-color="#8DC63F"/>
<stop offset="1" stop-color="#009845"/>
</linearGradient>
<linearGradient id="paint3_linear_1224_20995" x1="106.461" y1="24.4057" x2="110.986" y2="24.4057" gradientUnits="userSpaceOnUse">
<stop stop-color="#F89C41"/>
<stop offset="1" stop-color="#FABA3C"/>
</linearGradient>
<linearGradient id="paint4_linear_1224_20995" x1="106.874" y1="18.3904" x2="112.003" y2="18.3904" gradientUnits="userSpaceOnUse">
<stop stop-color="#AD2724"/>
<stop offset="1" stop-color="#DD1C81"/>
</linearGradient>
</defs>
</svg>
