<svg width="90" height="24" viewBox="0 0 90 24" fill="none" xmlns="http://www.w3.org/2000/svg">
<path d="M32.7734 0.761775C32.6955 0.695519 32.5863 0.66434 32.4421 0.66434C32.3486 0.66434 32.2473 0.695519 32.1459 0.761775C32.0446 0.824132 31.955 0.913773 31.8848 1.03069V3.57177H31.23V1.11254C31.23 0.944948 31.1911 0.82803 31.1131 0.761775C31.0352 0.695519 30.9222 0.66434 30.778 0.66434C30.6844 0.66434 30.587 0.699421 30.4856 0.765676C30.3843 0.831931 30.2986 0.917666 30.2245 1.02679V3.57567H29.5698V0.208355H30.1154L30.1856 0.485065C30.2869 0.348657 30.4038 0.259017 30.5363 0.216146C30.6688 0.173275 30.7857 0.145996 30.891 0.145996C31.082 0.145996 31.2456 0.181068 31.3859 0.251221C31.5262 0.321373 31.6393 0.41491 31.725 0.531831C31.8419 0.403218 31.9745 0.309685 32.1226 0.24343C32.2707 0.177175 32.4149 0.145996 32.5474 0.145996C32.8669 0.145996 33.1125 0.231731 33.284 0.407113C33.4554 0.578597 33.5412 0.812446 33.5412 1.10865V3.57567H32.8864V1.11644C32.8864 0.94885 32.8475 0.831931 32.7695 0.765676L32.7734 0.761775Z" fill="#231F20"/>
<path d="M37.7036 0.153804C38.0154 0.153804 38.2648 0.247345 38.4519 0.438315L38.5065 0.208372H39.0248V3.57569H38.5338L38.4558 3.30677C38.374 3.40031 38.2687 3.47826 38.1479 3.54061C38.0271 3.60297 37.879 3.63026 37.7036 3.63026C37.4659 3.63026 37.2671 3.59907 37.0995 3.53671C36.9319 3.47436 36.7955 3.37303 36.6942 3.23662C36.589 3.10021 36.5149 2.92093 36.4682 2.69878C36.4214 2.48053 36.398 2.21161 36.398 1.89203C36.398 1.57244 36.4214 1.30742 36.4721 1.08917C36.5227 0.870916 36.5968 0.687746 36.7059 0.547441C36.8111 0.407136 36.9475 0.305805 37.1112 0.243447C37.2749 0.181089 37.4776 0.149902 37.7075 0.149902L37.7036 0.153804ZM37.7036 3.1314C37.8985 3.1314 38.0505 3.10411 38.1596 3.05344C38.2648 3.00278 38.3467 2.92873 38.3974 2.83519V0.941067C38.3311 0.84753 38.2454 0.773481 38.1323 0.722816C38.0193 0.67215 37.879 0.644875 37.7036 0.644875C37.5672 0.644875 37.4542 0.668253 37.3685 0.711124C37.2827 0.753995 37.2165 0.824155 37.1658 0.925486C37.1151 1.02292 37.0839 1.15153 37.0645 1.31132C37.045 1.47111 37.0372 1.66208 37.0372 1.89203C37.0372 2.12197 37.045 2.31685 37.0645 2.47274C37.0839 2.62864 37.1151 2.75724 37.1658 2.85858C37.2165 2.95991 37.2827 3.02617 37.3685 3.06904C37.4542 3.11191 37.5672 3.1314 37.7036 3.1314Z" fill="#231F20"/>
<path d="M43.2806 3.62636C43.1286 3.62636 42.9961 3.60298 42.883 3.55621C42.77 3.50944 42.6726 3.44708 42.5868 3.36523V4.64357H41.9594V0.208377H42.4543L42.5206 0.450012C42.6999 0.255144 42.9532 0.153809 43.2806 0.153809C43.5144 0.153809 43.7132 0.184984 43.8769 0.247342C44.0406 0.309699 44.177 0.41103 44.2822 0.551336C44.3874 0.691641 44.4654 0.870925 44.5121 1.09307C44.5628 1.31133 44.5862 1.58024 44.5862 1.89593C44.5862 2.21162 44.5628 2.48054 44.516 2.70269C44.4693 2.92094 44.3952 3.10022 44.29 3.24053C44.1848 3.37693 44.0522 3.47826 43.8847 3.54062C43.7171 3.60298 43.5144 3.63415 43.2806 3.63415V3.62636ZM43.2806 0.64877C43.1052 0.64877 42.961 0.676056 42.848 0.726722C42.7349 0.777387 42.6492 0.851436 42.5868 0.944973V2.8391C42.6375 2.93264 42.7154 3.00668 42.8246 3.05735C42.9337 3.10802 43.0857 3.13529 43.2806 3.13529C43.417 3.13529 43.5261 3.1158 43.6118 3.07293C43.6976 3.03006 43.7677 2.95992 43.8145 2.86248C43.8613 2.76505 43.8963 2.63643 43.9158 2.47663C43.9353 2.31684 43.9431 2.12588 43.9431 1.89593C43.9431 1.66599 43.9353 1.47502 43.9158 1.31523C43.8963 1.15544 43.8652 1.03071 43.8145 0.92938C43.7638 0.831946 43.6976 0.761798 43.6118 0.71503C43.5261 0.672159 43.4131 0.64877 43.2806 0.64877Z" fill="#231F20"/>
<path d="M48.1407 2.9716C48.2499 3.06904 48.398 3.1197 48.5733 3.1197C48.737 3.1197 48.8734 3.08073 48.9826 3.00668C49.0917 2.93263 49.1463 2.8196 49.1463 2.66371C49.1463 2.58186 49.1307 2.51171 49.1034 2.45715C49.0761 2.40258 49.0371 2.35581 48.9904 2.32074C48.9436 2.28566 48.889 2.25448 48.8267 2.23109C48.7643 2.20771 48.6981 2.18434 48.6318 2.15705L48.1914 2.00505C47.9303 1.91152 47.7276 1.78679 47.5873 1.6348C47.447 1.4828 47.373 1.28794 47.373 1.0424C47.373 0.757895 47.4743 0.539641 47.6808 0.383747C47.8874 0.227852 48.1641 0.149902 48.5188 0.149902C48.8734 0.149902 49.1696 0.231757 49.3762 0.391549C49.5828 0.551341 49.6958 0.816361 49.7075 1.18271H49.0527C49.0449 1.01513 48.9982 0.886506 48.9046 0.796866C48.815 0.707227 48.6864 0.660456 48.5227 0.660456C48.359 0.660456 48.2421 0.695536 48.1524 0.761792C48.0628 0.828047 48.016 0.933275 48.016 1.07748C48.016 1.14763 48.0277 1.20609 48.0511 1.25286C48.0745 1.30353 48.1095 1.3464 48.1563 1.38537C48.2031 1.42435 48.2616 1.45942 48.3356 1.4906C48.4058 1.52178 48.4915 1.55685 48.5889 1.58803L49.0254 1.73613C49.1307 1.77511 49.232 1.82188 49.3255 1.87254C49.4191 1.92321 49.5048 1.98167 49.575 2.05182C49.6451 2.12197 49.6997 2.20382 49.7425 2.29735C49.7854 2.39089 49.801 2.50391 49.801 2.63642C49.801 2.79622 49.7698 2.93653 49.7075 3.05735C49.6451 3.17816 49.5594 3.28339 49.4502 3.36913C49.3411 3.45487 49.2086 3.52113 49.0566 3.564C48.9046 3.60687 48.737 3.63026 48.5616 3.63026C48.1368 3.63026 47.825 3.52502 47.6302 3.31846C47.4353 3.1119 47.334 2.8313 47.3262 2.48443H47.9653C47.9731 2.71438 48.0316 2.87806 48.1446 2.97549L48.1407 2.9716Z" fill="#231F20"/>
<path d="M53.1955 2.0791C53.1955 2.27397 53.2111 2.43766 53.2345 2.57017C53.2579 2.70269 53.2968 2.81571 53.3475 2.89755C53.3982 2.9794 53.4644 3.04175 53.5502 3.07683C53.632 3.1119 53.7372 3.1314 53.862 3.1314C54.1114 3.1314 54.2868 3.06903 54.3842 2.94432C54.4816 2.8196 54.5323 2.64033 54.5401 2.41038H55.1793C55.1481 2.8274 55.0234 3.13529 54.809 3.33405C54.5947 3.53282 54.279 3.63026 53.862 3.63026C53.6242 3.63026 53.4254 3.59907 53.2579 3.53671C53.0903 3.47436 52.9539 3.37303 52.8525 3.23662C52.7473 3.10021 52.6733 2.92093 52.6265 2.69878C52.5797 2.48053 52.5563 2.21161 52.5563 1.89203C52.5563 1.57244 52.5797 1.30742 52.6304 1.08917C52.6811 0.870916 52.7551 0.687746 52.8603 0.547441C52.9656 0.407136 53.102 0.305805 53.2657 0.243447C53.4294 0.181089 53.632 0.149902 53.862 0.149902C54.0607 0.149902 54.2439 0.177189 54.4037 0.227854C54.5674 0.27852 54.7038 0.368157 54.8168 0.492872C54.9298 0.617588 55.0156 0.789071 55.0779 1.00343C55.1364 1.21778 55.1676 1.4906 55.1676 1.82188V2.0791H53.1994H53.1955ZM53.862 0.648765C53.7411 0.648765 53.6398 0.664356 53.5619 0.699432C53.4839 0.734509 53.4177 0.785176 53.367 0.859226C53.3163 0.933276 53.2774 1.02682 53.254 1.14374C53.2306 1.26066 53.2111 1.40096 53.2033 1.56855H54.5362C54.5284 1.41265 54.5128 1.27624 54.4894 1.15932C54.466 1.0424 54.4271 0.948865 54.3764 0.870917C54.3257 0.796867 54.2595 0.742307 54.1737 0.703333C54.088 0.66436 53.9867 0.648765 53.862 0.648765Z" fill="#231F20"/>
<path d="M59.256 0.153804C59.5678 0.153804 59.8172 0.247345 60.0043 0.438315L60.0589 0.208372H60.5772V3.57569H60.0861L60.0082 3.30677C59.9263 3.40031 59.8211 3.47826 59.7003 3.54061C59.5795 3.60297 59.4314 3.63026 59.256 3.63026C59.0183 3.63026 58.8195 3.59907 58.6519 3.53671C58.4843 3.47436 58.3479 3.37303 58.2466 3.23662C58.1414 3.10021 58.0673 2.92093 58.0205 2.69878C57.9738 2.48053 57.9504 2.21161 57.9504 1.89203C57.9504 1.57244 57.9738 1.30742 58.0244 1.08917C58.0751 0.870916 58.1491 0.687746 58.2583 0.547441C58.3635 0.407136 58.4999 0.305805 58.6636 0.243447C58.8273 0.181089 59.03 0.149902 59.2599 0.149902L59.256 0.153804ZM59.256 3.1314C59.4509 3.1314 59.6029 3.10411 59.712 3.05344C59.8172 3.00278 59.8991 2.92873 59.9497 2.83519V0.941067C59.8835 0.84753 59.7977 0.773481 59.6847 0.722816C59.5717 0.67215 59.4314 0.644875 59.256 0.644875C59.1196 0.644875 59.0066 0.668253 58.9208 0.711124C58.8351 0.753995 58.7688 0.824155 58.7182 0.925486C58.6675 1.02292 58.6363 1.15153 58.6168 1.31132C58.5973 1.47111 58.5896 1.66208 58.5896 1.89203C58.5896 2.12197 58.5973 2.31685 58.6168 2.47274C58.6363 2.62864 58.6675 2.75724 58.7182 2.85858C58.7688 2.95991 58.8351 3.02617 58.9208 3.06904C59.0066 3.11191 59.1196 3.1314 59.256 3.1314Z" fill="#231F20"/>
<path d="M80.5935 22.3511C80.5935 22.5969 80.7707 22.7741 81.0166 22.7741H82.6716C82.9174 22.7741 83.0946 22.5969 83.0946 22.3511V19.9329L80.5935 18.8667V22.3482V22.3511Z" fill="url(#paint0_linear_1224_9648)"/>
<path d="M84.5753 14.5249L80.5935 16.3286V17.9378L83.0946 19.004V16.4772L85.1041 20.1846L86.6019 18.2608L84.5753 14.5249Z" fill="url(#paint1_linear_1224_9648)"/>
<path d="M83.4062 12.3668C83.3119 12.2039 83.1604 12.1182 82.966 12.1182H81.0194C80.7736 12.1182 80.5964 12.2954 80.5964 12.5412V15.3882L84.1665 13.7703L83.4062 12.3697V12.3668Z" fill="url(#paint2_linear_1224_9648)"/>
<path d="M85.5499 21.0048L86.3731 22.5226C86.4675 22.6884 86.619 22.777 86.8133 22.777H88.7599C89.0057 22.777 89.183 22.5998 89.183 22.3539V16.3398L85.5471 21.0048H85.5499Z" fill="url(#paint3_linear_1224_9648)"/>
<path d="M89.9721 13.2242L88.0312 11.3376C87.9855 11.2833 87.9026 11.2833 87.854 11.3376L85.9103 13.2242C85.8446 13.3013 85.896 13.4185 85.9989 13.4185H86.6849V18.1521L89.186 14.9421V13.4185H89.8835C89.9835 13.4185 90.0378 13.2985 89.9721 13.2242Z" fill="url(#paint4_linear_1224_9648)"/>
<path d="M8.88469 12.6294H6.35214C6.2721 12.6294 6.20922 12.6923 6.20922 12.7723V17.7374C6.20922 18.0404 6.23208 18.4377 6.25781 18.7836C6.09488 18.4263 5.88907 18.0032 5.6947 17.6659L2.8277 12.7009C2.80198 12.658 2.75625 12.6294 2.70479 12.6294H0.143653C0.0636176 12.6294 0.000732422 12.6923 0.000732422 12.7723V23.3999C0.000732422 23.4799 0.0636176 23.5428 0.143653 23.5428H2.67621C2.75624 23.5428 2.81913 23.4799 2.81913 23.3999V18.4491C2.81913 18.1461 2.79627 17.7488 2.77054 17.4029C2.93347 17.7602 3.13928 18.1833 3.33365 18.5206L6.21493 23.4714C6.24066 23.5142 6.28639 23.5428 6.33784 23.5428H8.88469C8.96473 23.5428 9.02761 23.4799 9.02761 23.3999V12.7723C9.02761 12.6923 8.96473 12.6294 8.88469 12.6294Z" fill="#231F20"/>
<path d="M16.3568 12.7266C16.3368 12.6694 16.2825 12.6294 16.2225 12.6294H13.5584C13.4956 12.6294 13.4412 12.6694 13.4241 12.7266L9.90538 23.3542C9.89109 23.397 9.89967 23.4456 9.92539 23.4828C9.95112 23.5199 9.99686 23.5428 10.0426 23.5428H12.6495C12.7124 23.5428 12.7695 23.4999 12.7867 23.4371L13.3812 21.3104H16.394L17 23.4371C17.0171 23.4971 17.0743 23.54 17.1372 23.54H19.7441C19.7898 23.54 19.8327 23.5171 19.8613 23.4799C19.8898 23.4428 19.8956 23.3942 19.8813 23.3513L16.3625 12.7237L16.3568 12.7266ZM15.7137 18.9465H14.0501L14.5903 17.0628C14.6904 16.7084 14.8019 16.211 14.8876 15.8251C14.9705 16.211 15.0848 16.7084 15.1849 17.0628L15.7137 18.9465Z" fill="#231F20"/>
<path d="M29.1764 12.6294H26.4694C26.4066 12.6294 26.3522 12.6694 26.3322 12.7294L24.48 18.7807C24.3799 19.1123 24.2827 19.5296 24.2113 19.8698C24.1398 19.5296 24.0426 19.1123 23.9426 18.7807L22.1189 12.7323C22.1018 12.6723 22.0446 12.6294 21.9817 12.6294H19.2319C19.1862 12.6294 19.1433 12.6523 19.1147 12.6894C19.089 12.7266 19.0804 12.7752 19.0947 12.8181L22.7563 23.4456C22.7764 23.5028 22.8307 23.5428 22.8907 23.5428H25.5262C25.5862 23.5428 25.6405 23.5028 25.6605 23.4456L29.3078 12.8181C29.3221 12.7752 29.3164 12.7266 29.2878 12.6894C29.2593 12.6523 29.2164 12.6294 29.1706 12.6294H29.1764Z" fill="#231F20"/>
<path d="M32.8384 12.6294H30.3059C30.227 12.6294 30.163 12.6934 30.163 12.7723V23.3999C30.163 23.4788 30.227 23.5428 30.3059 23.5428H32.8384C32.9174 23.5428 32.9814 23.4788 32.9814 23.3999V12.7723C32.9814 12.6934 32.9174 12.6294 32.8384 12.6294Z" fill="#231F20"/>
<path d="M44.649 17.6684C44.649 17.4169 44.4661 17.2311 44.2117 17.2311H39.6525C39.401 17.2311 39.2152 17.414 39.2152 17.6684V19.1319C39.2152 19.3834 39.3981 19.5692 39.6525 19.5692H42.1108C41.9593 20.6268 40.9988 21.3243 39.6525 21.3243C37.8231 21.3243 36.4968 20.0152 36.4968 18.2144C36.4968 16.4136 37.8088 15.0872 39.5468 15.0872C40.3528 15.0872 41.0703 15.3588 41.7334 15.9133C41.9307 16.0848 42.1851 16.062 42.3537 15.8676L43.377 14.7843C43.6314 14.467 43.4771 14.2269 43.3627 14.1125C42.3623 13.0949 41.036 12.5547 39.5296 12.5547C36.3653 12.5547 33.8871 15.0415 33.8871 18.2115C33.8871 21.3815 36.3853 23.854 39.5753 23.854C42.5595 23.854 44.6462 21.713 44.6462 18.6488V17.6684H44.649Z" fill="#231F20"/>
<path d="M50.8232 12.7266C50.8032 12.6694 50.7489 12.6294 50.6889 12.6294H48.0248C47.9619 12.6294 47.9076 12.6694 47.8905 12.7266L44.3718 23.3542C44.3575 23.397 44.366 23.4456 44.3918 23.4828C44.4175 23.5199 44.4632 23.5428 44.509 23.5428H47.1158C47.1787 23.5428 47.2359 23.4999 47.253 23.4371L47.8476 21.3104H50.8604L51.4664 23.4371C51.4835 23.4971 51.5407 23.54 51.6036 23.54H54.2104C54.2562 23.54 54.299 23.5171 54.3276 23.4799C54.3562 23.4428 54.3619 23.3942 54.3476 23.3513L50.8289 12.7237L50.8232 12.7266ZM50.1801 18.9465H48.5165L49.0567 17.0628C49.1567 16.7084 49.2682 16.211 49.354 15.8251C49.4369 16.211 49.5512 16.7084 49.6513 17.0628L50.1801 18.9465Z" fill="#231F20"/>
<path d="M62.4714 12.6294H53.656C53.576 12.6294 53.5131 12.6923 53.5131 12.7723V15.0019C53.5131 15.0819 53.576 15.1448 53.656 15.1448H56.6545V23.3999C56.6545 23.4799 56.7174 23.5428 56.7974 23.5428H59.33C59.41 23.5428 59.4729 23.4799 59.4729 23.3999V15.1448H62.4714C62.5514 15.1448 62.6143 15.0819 62.6143 15.0019V12.7723C62.6143 12.6923 62.5514 12.6294 62.4714 12.6294Z" fill="#231F20"/>
<path d="M66.2762 12.6294H63.7437C63.6648 12.6294 63.6008 12.6934 63.6008 12.7723V23.3999C63.6008 23.4788 63.6648 23.5428 63.7437 23.5428H66.2762C66.3552 23.5428 66.4192 23.4788 66.4192 23.3999V12.7723C66.4192 12.6934 66.3552 12.6294 66.2762 12.6294Z" fill="#231F20"/>
<path d="M73.4136 12.4521C70.2465 12.4521 67.8568 14.8475 67.8568 18.0203C67.8568 21.1932 70.2465 23.7229 73.4136 23.7229C76.5807 23.7229 78.9703 21.2704 78.9703 18.0203C78.9703 14.7703 76.5807 12.4521 73.4136 12.4521ZM73.4136 21.0588C71.9272 21.0588 70.7638 19.724 70.7638 18.0203C70.7638 16.3167 71.9272 15.1162 73.4136 15.1162C74.9 15.1162 76.0633 16.391 76.0633 18.0203C76.0633 19.6496 74.9 21.0588 73.4136 21.0588Z" fill="#231F20"/>
<defs>
<linearGradient id="paint0_linear_1224_9648" x1="80.5935" y1="20.8219" x2="83.0946" y2="20.8219" gradientUnits="userSpaceOnUse">
<stop offset="0.11" stop-color="#AD2724"/>
<stop offset="0.97" stop-color="#EA1881"/>
</linearGradient>
<linearGradient id="paint1_linear_1224_9648" x1="80.5935" y1="17.3547" x2="86.6019" y2="17.3547" gradientUnits="userSpaceOnUse">
<stop stop-color="#0092D2"/>
<stop offset="0.39" stop-color="#0085C5"/>
<stop offset="1" stop-color="#016AAB"/>
</linearGradient>
<linearGradient id="paint2_linear_1224_9648" x1="80.5935" y1="13.7532" x2="84.1637" y2="13.7532" gradientUnits="userSpaceOnUse">
<stop offset="0.12" stop-color="#8DC63F"/>
<stop offset="1" stop-color="#009845"/>
</linearGradient>
<linearGradient id="paint3_linear_1224_9648" x1="85.5499" y1="19.5584" x2="89.1858" y2="19.5584" gradientUnits="userSpaceOnUse">
<stop stop-color="#F89C41"/>
<stop offset="1" stop-color="#FABA3C"/>
</linearGradient>
<linearGradient id="paint4_linear_1224_9648" x1="85.8817" y1="14.7248" x2="90.0035" y2="14.7248" gradientUnits="userSpaceOnUse">
<stop stop-color="#AD2724"/>
<stop offset="1" stop-color="#DD1C81"/>
</linearGradient>
</defs>
</svg>
