<svg width="160" height="42" viewBox="0 0 160 42" fill="none" xmlns="http://www.w3.org/2000/svg">
<path d="M58.0592 1.0904C57.9211 0.973022 57.7278 0.917787 57.4723 0.917787C57.3066 0.917787 57.1271 0.973022 56.9476 1.0904C56.7681 1.20087 56.6093 1.35967 56.485 1.5668V6.06846H55.3251V1.71179C55.3251 1.4149 55.256 1.20777 55.1179 1.0904C54.9799 0.973022 54.7796 0.917787 54.5242 0.917787C54.3584 0.917787 54.1858 0.979933 54.0063 1.09731C53.8268 1.21468 53.6749 1.36657 53.5437 1.55989V6.07537H52.3838V0.109985H53.3504L53.4747 0.600191C53.6542 0.358537 53.8613 0.199734 54.0961 0.123786C54.3308 0.0478374 54.538 -0.000488281 54.7244 -0.000488281C55.0627 -0.000488281 55.3527 0.0616437 55.6012 0.185923C55.8498 0.310202 56.05 0.475908 56.2019 0.68304C56.409 0.455195 56.6438 0.289496 56.9062 0.172122C57.1685 0.0547469 57.424 -0.000488281 57.6588 -0.000488281C58.2249 -0.000488281 58.6599 0.151397 58.9637 0.462094C59.2675 0.765888 59.4194 1.18016 59.4194 1.7049V6.07537H58.2594V1.7187C58.2594 1.42181 58.1904 1.21468 58.0523 1.09731L58.0592 1.0904Z" fill="white"/>
<path d="M66.7934 0.0132588C67.3458 0.0132588 67.7877 0.178972 68.1191 0.517287L68.2157 0.10993H69.134V6.07532H68.2641L68.126 5.59891C67.981 5.76462 67.7946 5.90271 67.5805 6.01318C67.3665 6.12365 67.1041 6.17199 66.7934 6.17199C66.3723 6.17199 66.0201 6.11674 65.7233 6.00627C65.4264 5.8958 65.1847 5.71629 65.0052 5.47464C64.8188 5.23298 64.6876 4.91538 64.6047 4.52183C64.5219 4.13518 64.4805 3.65877 64.4805 3.09261C64.4805 2.52645 64.5219 2.05696 64.6117 1.67031C64.7014 1.28366 64.8326 0.959168 65.0259 0.710609C65.2123 0.462051 65.454 0.282538 65.744 0.172067C66.0339 0.0615971 66.393 0.00634766 66.8003 0.00634766L66.7934 0.0132588ZM66.7934 5.28823C67.1386 5.28823 67.4079 5.23989 67.6012 5.15013C67.7877 5.06037 67.9327 4.92919 68.0224 4.76349V1.40794C67.905 1.24223 67.7531 1.11105 67.5529 1.02129C67.3527 0.931537 67.1041 0.883219 66.7934 0.883219C66.5518 0.883219 66.3516 0.924634 66.1997 1.00058C66.0478 1.07653 65.9304 1.20082 65.8406 1.38034C65.7509 1.55295 65.6956 1.78078 65.6611 2.06386C65.6266 2.34695 65.6128 2.68525 65.6128 3.09261C65.6128 3.49997 65.6266 3.84521 65.6611 4.12138C65.6956 4.39756 65.7509 4.6254 65.8406 4.80491C65.9304 4.98442 66.0478 5.10181 66.1997 5.17775C66.3516 5.2537 66.5518 5.28823 66.7934 5.28823Z" fill="white"/>
<path d="M76.6736 6.16451C76.4043 6.16451 76.1696 6.12309 75.9693 6.04024C75.7691 5.95739 75.5965 5.8469 75.4446 5.70191V7.96655H74.333V0.109367H75.2099L75.3272 0.537436C75.6448 0.192216 76.0936 0.0126953 76.6736 0.0126953C77.0879 0.0126953 77.44 0.0679237 77.73 0.178394C78.02 0.288864 78.2616 0.468378 78.448 0.716936C78.6344 0.965494 78.7725 1.28311 78.8554 1.67666C78.9451 2.0633 78.9866 2.5397 78.9866 3.09896C78.9866 3.65822 78.9451 4.13462 78.8623 4.52817C78.7794 4.91482 78.6483 5.23243 78.4618 5.48098C78.2754 5.72264 78.0407 5.90214 77.7438 6.01262C77.4469 6.12309 77.0879 6.17831 76.6736 6.17831V6.16451ZM76.6736 0.889546C76.3629 0.889546 76.1074 0.937885 75.9072 1.02764C75.707 1.1174 75.5551 1.24858 75.4446 1.41429V4.76983C75.5344 4.93554 75.6725 5.06672 75.8658 5.15648C76.0591 5.24623 76.3284 5.29455 76.6736 5.29455C76.9153 5.29455 77.1086 5.26003 77.2605 5.18408C77.4124 5.10813 77.5367 4.98387 77.6195 4.81126C77.7024 4.63865 77.7645 4.41079 77.799 4.12771C77.8335 3.84463 77.8473 3.50632 77.8473 3.09896C77.8473 2.6916 77.8335 2.35329 77.799 2.07021C77.7645 1.78713 77.7093 1.56618 77.6195 1.38666C77.5297 1.21405 77.4124 1.08978 77.2605 1.00693C77.1086 0.930981 76.9084 0.889546 76.6736 0.889546Z" fill="white"/>
<path d="M85.2829 5.00514C85.4762 5.17775 85.7386 5.26751 86.0493 5.26751C86.3392 5.26751 86.5809 5.19846 86.7742 5.06728C86.9675 4.9361 87.0642 4.73587 87.0642 4.45969C87.0642 4.3147 87.0366 4.19042 86.9882 4.09376C86.9399 3.9971 86.8709 3.91424 86.788 3.8521C86.7052 3.78996 86.6085 3.73472 86.498 3.69329C86.3876 3.65187 86.2702 3.61046 86.1528 3.56213L85.3726 3.29285C84.91 3.12714 84.551 2.90619 84.3024 2.63692C84.0539 2.36765 83.9227 2.02244 83.9227 1.58746C83.9227 1.08344 84.1022 0.696791 84.4681 0.420616C84.8341 0.14444 85.3243 0.00634766 85.9526 0.00634766C86.5809 0.00634766 87.1056 0.151358 87.4716 0.434438C87.8375 0.717518 88.0377 1.18702 88.0584 1.83603H86.8985C86.8847 1.53914 86.8018 1.31128 86.6361 1.15248C86.4773 0.993679 86.2495 0.910822 85.9595 0.910822C85.6695 0.910822 85.4624 0.972968 85.3036 1.09034C85.1448 1.20772 85.0619 1.39413 85.0619 1.6496C85.0619 1.77388 85.0826 1.87745 85.1241 1.9603C85.1655 2.05006 85.2276 2.12601 85.3105 2.19505C85.3933 2.26409 85.4969 2.32623 85.6281 2.38146C85.7524 2.4367 85.9043 2.49884 86.0769 2.55407L86.8502 2.81644C87.0366 2.88549 87.2161 2.96834 87.3818 3.0581C87.5475 3.14786 87.6994 3.25142 87.8237 3.3757C87.948 3.49997 88.0446 3.64497 88.1206 3.81068C88.1965 3.97638 88.2241 4.17661 88.2241 4.41136C88.2241 4.69444 88.1689 4.94301 88.0584 5.15704C87.948 5.37108 87.7961 5.55749 87.6027 5.70938C87.4094 5.86128 87.1747 5.97866 86.9054 6.0546C86.6361 6.13055 86.3392 6.17199 86.0285 6.17199C85.276 6.17199 84.7236 5.98556 84.3784 5.61962C84.0332 5.25369 83.8537 4.75659 83.8398 4.14209H84.9722C84.986 4.54945 85.0895 4.83942 85.2898 5.01203L85.2829 5.00514Z" fill="white"/>
<path d="M94.2388 3.42403C94.2388 3.76925 94.2664 4.05924 94.3078 4.29399C94.3492 4.52874 94.4183 4.72897 94.508 4.87396C94.5978 5.01895 94.7152 5.12942 94.8671 5.19155C95.012 5.25369 95.1985 5.28823 95.4194 5.28823C95.8613 5.28823 96.172 5.17775 96.3446 4.95681C96.5172 4.73587 96.607 4.41827 96.6208 4.01091H97.7531C97.6979 4.74968 97.4769 5.29512 97.0972 5.64725C96.7174 5.99937 96.1582 6.17199 95.4194 6.17199C94.9983 6.17199 94.6461 6.11674 94.3492 6.00627C94.0523 5.8958 93.8107 5.71629 93.6312 5.47464C93.4448 5.23298 93.3136 4.91538 93.2307 4.52183C93.1479 4.13518 93.1064 3.65877 93.1064 3.09261C93.1064 2.52645 93.1479 2.05696 93.2376 1.67031C93.3274 1.28366 93.4586 0.959168 93.645 0.710609C93.8314 0.462051 94.0731 0.282538 94.363 0.172067C94.653 0.0615971 95.0121 0.00634766 95.4194 0.00634766C95.7715 0.00634766 96.096 0.0546869 96.3791 0.144444C96.6691 0.234201 96.9108 0.392997 97.111 0.613938C97.3112 0.834878 97.4631 1.13867 97.5736 1.51841C97.6772 1.89815 97.7324 2.38147 97.7324 2.96834V3.42403H94.2457H94.2388ZM95.4194 0.890109C95.2054 0.890109 95.0259 0.91773 94.8878 0.97987C94.7497 1.04201 94.6323 1.13177 94.5425 1.26295C94.4528 1.39414 94.3838 1.55985 94.3423 1.76698C94.3009 1.97411 94.2664 2.22267 94.2526 2.51956H96.6139C96.6001 2.24338 96.5724 2.00172 96.531 1.79458C96.4896 1.58745 96.4206 1.42175 96.3308 1.28366C96.241 1.15248 96.1237 1.05582 95.9718 0.986781C95.8199 0.917737 95.6404 0.890109 95.4194 0.890109Z" fill="white"/>
<path d="M104.974 0.0132588C105.526 0.0132588 105.968 0.178972 106.3 0.517287L106.396 0.10993H107.315V6.07532H106.445L106.307 5.59891C106.162 5.76462 105.975 5.90271 105.761 6.01318C105.547 6.12365 105.285 6.17199 104.974 6.17199C104.553 6.17199 104.201 6.11674 103.904 6.00627C103.607 5.8958 103.365 5.71629 103.186 5.47464C102.999 5.23298 102.868 4.91538 102.785 4.52183C102.703 4.13518 102.661 3.65877 102.661 3.09261C102.661 2.52645 102.703 2.05696 102.792 1.67031C102.882 1.28366 103.013 0.959168 103.207 0.710609C103.393 0.462051 103.635 0.282538 103.925 0.172067C104.215 0.0615971 104.574 0.00634766 104.981 0.00634766L104.974 0.0132588ZM104.974 5.28823C105.319 5.28823 105.589 5.23989 105.782 5.15013C105.968 5.06037 106.113 4.92919 106.203 4.76349V1.40794C106.086 1.24223 105.934 1.11105 105.734 1.02129C105.533 0.931537 105.285 0.883219 104.974 0.883219C104.732 0.883219 104.532 0.924634 104.38 1.00058C104.228 1.07653 104.111 1.20082 104.021 1.38034C103.932 1.55295 103.876 1.78078 103.842 2.06386C103.807 2.34695 103.793 2.68525 103.793 3.09261C103.793 3.49997 103.807 3.84521 103.842 4.12138C103.876 4.39756 103.932 4.6254 104.021 4.80491C104.111 4.98442 104.228 5.10181 104.38 5.17775C104.532 5.2537 104.732 5.28823 104.974 5.28823Z" fill="white"/>
<path d="M142.774 39.3364C142.774 39.7719 143.088 40.0858 143.524 40.0858H146.456C146.891 40.0858 147.205 39.7719 147.205 39.3364V35.0524L142.774 33.1636V39.3313V39.3364Z" fill="url(#paint0_linear_1224_28)"/>
<path d="M149.828 25.4717L142.774 28.667V31.5179L147.205 33.4067V28.9303L150.765 35.4981L153.419 32.0901L149.828 25.4717Z" fill="url(#paint1_linear_1224_28)"/>
<path d="M147.757 21.6486C147.59 21.3599 147.322 21.208 146.977 21.208H143.529C143.093 21.208 142.779 21.522 142.779 21.9575V27.001L149.104 24.1349L147.757 21.6536V21.6486Z" fill="url(#paint2_linear_1224_28)"/>
<path d="M151.555 36.9517L153.013 39.6406C153.18 39.9343 153.449 40.0912 153.793 40.0912H157.242C157.677 40.0912 157.991 39.7773 157.991 39.3418V28.6875L151.55 36.9517H151.555Z" fill="url(#paint3_linear_1224_28)"/>
<path d="M159.388 23.1677L155.95 19.8256C155.869 19.7294 155.722 19.7294 155.636 19.8256L152.193 23.1677C152.076 23.3044 152.167 23.512 152.35 23.512H153.565V31.8978L157.996 26.2111V23.512H159.231C159.408 23.512 159.505 23.2994 159.388 23.1677Z" fill="url(#paint4_linear_1224_28)"/>
<path d="M15.7384 22.1143H11.2518C11.11 22.1143 10.9986 22.2257 10.9986 22.3674V31.1633C10.9986 31.7001 11.0391 32.404 11.0847 33.0167C10.7961 32.3837 10.4315 31.6343 10.0871 31.0367L5.00812 22.2409C4.96254 22.1649 4.88153 22.1143 4.79038 22.1143H0.253191C0.111404 22.1143 0 22.2257 0 22.3674V41.1948C0 41.3366 0.111404 41.448 0.253191 41.448H4.73973C4.88152 41.448 4.99293 41.3366 4.99293 41.1948V32.4242C4.99293 31.8875 4.95242 31.1836 4.90685 30.5709C5.19549 31.2038 5.56008 31.9533 5.90442 32.5508L11.0088 41.3214C11.0543 41.3973 11.1353 41.448 11.2265 41.448H15.7384C15.8802 41.448 15.9916 41.3366 15.9916 41.1948V22.3674C15.9916 22.2257 15.8802 22.1143 15.7384 22.1143Z" fill="white"/>
<path d="M28.9754 22.2864C28.94 22.1851 28.8438 22.1143 28.7374 22.1143H24.0179C23.9065 22.1143 23.8103 22.1851 23.7799 22.2864L17.5464 41.1138C17.5211 41.1897 17.5363 41.2758 17.5818 41.3416C17.6274 41.4075 17.7084 41.448 17.7894 41.448H22.4077C22.5191 41.448 22.6203 41.372 22.6507 41.2606L23.704 37.4931H29.0413L30.1148 41.2606C30.1452 41.367 30.2464 41.4429 30.3579 41.4429H34.9761C35.0571 41.4429 35.133 41.4024 35.1837 41.3366C35.2343 41.2707 35.2445 41.1847 35.2191 41.1087L28.9856 22.2814L28.9754 22.2864ZM27.8361 33.3053H24.8889L25.846 29.9683C26.0232 29.3404 26.2207 28.4592 26.3726 27.7756C26.5195 28.4592 26.722 29.3404 26.8993 29.9683L27.8361 33.3053Z" fill="white"/>
<path d="M51.6868 22.1143H46.8913C46.7799 22.1143 46.6837 22.1852 46.6483 22.2915L43.3669 33.0116C43.1897 33.599 43.0175 34.3383 42.8909 34.9409C42.7643 34.3383 42.5921 33.599 42.4149 33.0116L39.1842 22.2966C39.1538 22.1902 39.0525 22.1143 38.9411 22.1143H34.0697C33.9887 22.1143 33.9127 22.1548 33.8621 22.2206C33.8165 22.2864 33.8013 22.3725 33.8266 22.4485L40.3134 41.2758C40.3489 41.3771 40.4451 41.448 40.5514 41.448H45.2203C45.3266 41.448 45.4228 41.3771 45.4583 41.2758L51.9197 22.4485C51.945 22.3725 51.9349 22.2864 51.8843 22.2206C51.8336 22.1548 51.7577 22.1143 51.6766 22.1143H51.6868Z" fill="white"/>
<path d="M58.1733 22.1143H53.6868C53.547 22.1143 53.4336 22.2276 53.4336 22.3674V41.1948C53.4336 41.3346 53.547 41.448 53.6868 41.448H58.1733C58.3132 41.448 58.4265 41.3346 58.4265 41.1948V22.3674C58.4265 22.2276 58.3132 22.1143 58.1733 22.1143Z" fill="white"/>
<path d="M79.0975 31.0421C79.0975 30.5965 78.7735 30.2674 78.3228 30.2674H70.246C69.8004 30.2674 69.4712 30.5914 69.4712 31.0421V33.6348C69.4712 34.0804 69.7953 34.4096 70.246 34.4096H74.6009C74.3325 36.2832 72.631 37.5188 70.246 37.5188C67.0051 37.5188 64.6555 35.1995 64.6555 32.0093C64.6555 28.8191 66.9798 26.4695 70.0586 26.4695C71.4866 26.4695 72.7576 26.9505 73.9324 27.9329C74.2818 28.2367 74.7325 28.1962 75.0313 27.8519L76.8441 25.9327C77.2948 25.3706 77.0214 24.9453 76.8188 24.7427C75.0465 22.94 72.6969 21.9829 70.0282 21.9829C64.4226 21.9829 60.0322 26.3885 60.0322 32.0042C60.0322 37.62 64.458 42.0002 70.1092 42.0002C75.3959 42.0002 79.0925 38.2074 79.0925 32.779V31.0421H79.0975Z" fill="white"/>
<path d="M90.035 22.2864C89.9996 22.1851 89.9033 22.1143 89.797 22.1143H85.0775C84.9661 22.1143 84.8699 22.1851 84.8395 22.2864L78.6059 41.1138C78.5806 41.1897 78.5958 41.2758 78.6414 41.3416C78.687 41.4075 78.768 41.448 78.849 41.448H83.4672C83.5786 41.448 83.6799 41.372 83.7103 41.2606L84.7636 37.4931H90.1008L91.1744 41.2606C91.2048 41.367 91.306 41.4429 91.4174 41.4429H96.0357C96.1167 41.4429 96.1926 41.4024 96.2433 41.3366C96.2939 41.2707 96.304 41.1847 96.2787 41.1087L90.0451 22.2814L90.035 22.2864ZM88.8956 33.3053H85.9485L86.9056 29.9683C87.0828 29.3404 87.2803 28.4592 87.4322 27.7756C87.5791 28.4592 87.7816 29.3404 87.9588 29.9683L88.8956 33.3053Z" fill="white"/>
<path d="M110.67 22.1143H95.053C94.9112 22.1143 94.7998 22.2257 94.7998 22.3674V26.3172C94.7998 26.459 94.9112 26.5704 95.053 26.5704H100.365V41.1948C100.365 41.3366 100.476 41.448 100.618 41.448H105.105C105.246 41.448 105.358 41.3366 105.358 41.1948V26.5704H110.67C110.812 26.5704 110.923 26.459 110.923 26.3172V22.3674C110.923 22.2257 110.812 22.1143 110.67 22.1143Z" fill="white"/>
<path d="M117.41 22.1143H112.923C112.783 22.1143 112.67 22.2276 112.67 22.3674V41.1948C112.67 41.3346 112.783 41.448 112.923 41.448H117.41C117.549 41.448 117.663 41.3346 117.663 41.1948V22.3674C117.663 22.2276 117.549 22.1143 117.41 22.1143Z" fill="white"/>
<path d="M130.055 21.8008C124.444 21.8008 120.211 26.0443 120.211 31.6651C120.211 37.286 124.444 41.7675 130.055 41.7675C135.666 41.7675 139.899 37.4227 139.899 31.6651C139.899 25.9076 135.666 21.8008 130.055 21.8008ZM130.055 37.048C127.422 37.048 125.361 34.6832 125.361 31.6651C125.361 28.6471 127.422 26.5203 130.055 26.5203C132.688 26.5203 134.749 28.7788 134.749 31.6651C134.749 34.5515 132.688 37.048 130.055 37.048Z" fill="white"/>
<defs>
<linearGradient id="paint0_linear_1224_28" x1="142.774" y1="36.6272" x2="147.205" y2="36.6272" gradientUnits="userSpaceOnUse">
<stop offset="0.11" stop-color="#AD2724"/>
<stop offset="0.97" stop-color="#EA1881"/>
</linearGradient>
<linearGradient id="paint1_linear_1224_28" x1="142.774" y1="30.4849" x2="153.419" y2="30.4849" gradientUnits="userSpaceOnUse">
<stop stop-color="#0092D2"/>
<stop offset="0.39" stop-color="#0085C5"/>
<stop offset="1" stop-color="#016AAB"/>
</linearGradient>
<linearGradient id="paint2_linear_1224_28" x1="142.774" y1="24.1045" x2="149.099" y2="24.1045" gradientUnits="userSpaceOnUse">
<stop offset="0.12" stop-color="#8DC63F"/>
<stop offset="1" stop-color="#009845"/>
</linearGradient>
<linearGradient id="paint3_linear_1224_28" x1="151.555" y1="34.3894" x2="157.996" y2="34.3894" gradientUnits="userSpaceOnUse">
<stop stop-color="#F89C41"/>
<stop offset="1" stop-color="#FABA3C"/>
</linearGradient>
<linearGradient id="paint4_linear_1224_28" x1="152.142" y1="25.8262" x2="159.444" y2="25.8262" gradientUnits="userSpaceOnUse">
<stop stop-color="#AD2724"/>
<stop offset="1" stop-color="#DD1C81"/>
</linearGradient>
</defs>
</svg>
