<svg width="112" height="30" viewBox="0 0 112 30" fill="none" xmlns="http://www.w3.org/2000/svg">
<path d="M40.7844 1.01435C40.6874 0.931898 40.5516 0.893098 40.3722 0.893098C40.2558 0.893098 40.1297 0.931898 40.0036 1.01435C39.8775 1.09195 39.7659 1.2035 39.6786 1.349V4.51123H38.8638V1.45085C38.8638 1.2423 38.8153 1.0968 38.7183 1.01435C38.6213 0.931898 38.4806 0.893098 38.3012 0.893098C38.1848 0.893098 38.0635 0.936753 37.9374 1.0192C37.8113 1.10165 37.7046 1.20835 37.6125 1.34415V4.51609H36.7977V0.32565H37.4767L37.564 0.669999C37.6901 0.500247 37.8356 0.388695 38.0005 0.335344C38.1654 0.281994 38.3109 0.248047 38.4418 0.248047C38.6795 0.248047 38.8832 0.291692 39.0578 0.378993C39.2324 0.466294 39.3731 0.582696 39.4798 0.728198C39.6253 0.568146 39.7902 0.451749 39.9745 0.369298C40.1588 0.286847 40.3382 0.248047 40.5031 0.248047C40.9008 0.248047 41.2064 0.35474 41.4198 0.572992C41.6332 0.786395 41.7399 1.07741 41.7399 1.44601V4.51609H40.9251V1.45571C40.9251 1.24715 40.8766 1.10165 40.7796 1.0192L40.7844 1.01435Z" fill="#231F20"/>
<path d="M46.92 0.257784C47.308 0.257784 47.6184 0.374191 47.8512 0.611844L47.9191 0.325692H48.5642V4.51613H47.9531L47.8561 4.18148C47.7542 4.29788 47.6233 4.39488 47.4729 4.47248C47.3226 4.55008 47.1382 4.58404 46.92 4.58404C46.6241 4.58404 46.3768 4.54523 46.1682 4.46763C45.9597 4.39003 45.7899 4.26393 45.6638 4.09418C45.5329 3.92443 45.4407 3.70132 45.3825 3.42487C45.3243 3.15327 45.2952 2.81861 45.2952 2.4209C45.2952 2.0232 45.3243 1.6934 45.3874 1.42179C45.4504 1.15019 45.5426 0.922247 45.6784 0.747645C45.8093 0.573043 45.9791 0.446942 46.1828 0.369341C46.3865 0.29174 46.6387 0.25293 46.9248 0.25293L46.92 0.257784ZM46.92 3.96323C47.1625 3.96323 47.3516 3.92928 47.4875 3.86623C47.6184 3.80318 47.7203 3.71103 47.7833 3.59462V1.23749C47.7009 1.12109 47.5941 1.02894 47.4535 0.965888C47.3128 0.902838 47.1382 0.868896 46.92 0.868896C46.7502 0.868896 46.6096 0.897988 46.5029 0.951339C46.3962 1.00469 46.3137 1.092 46.2507 1.2181C46.1876 1.33935 46.1488 1.4994 46.1246 1.69825C46.1003 1.8971 46.0906 2.13475 46.0906 2.4209C46.0906 2.70706 46.1003 2.94957 46.1246 3.14357C46.1488 3.33758 46.1876 3.49762 46.2507 3.62372C46.3137 3.74983 46.3962 3.83228 46.5029 3.88563C46.6096 3.93898 46.7502 3.96323 46.92 3.96323Z" fill="#231F20"/>
<path d="M53.8603 4.57921C53.6712 4.57921 53.5062 4.55012 53.3656 4.49192C53.2249 4.43371 53.1037 4.3561 52.997 4.25425V5.84507H52.2161V0.32572H52.8321L52.9145 0.626421C53.1376 0.383919 53.4529 0.257812 53.8603 0.257812C54.1513 0.257812 54.3987 0.296608 54.6024 0.374209C54.8061 0.45181 54.9758 0.577911 55.1068 0.752513C55.2377 0.927115 55.3347 1.15022 55.3929 1.42668C55.456 1.69828 55.4851 2.03293 55.4851 2.42579C55.4851 2.81864 55.456 3.1533 55.3978 3.42975C55.3396 3.70135 55.2474 3.92446 55.1165 4.09906C54.9855 4.26881 54.8206 4.39491 54.6121 4.47251C54.4035 4.55011 54.1513 4.58891 53.8603 4.58891V4.57921ZM53.8603 0.873764C53.6421 0.873764 53.4626 0.90772 53.3219 0.970771C53.1813 1.03382 53.0746 1.12597 52.997 1.24237V3.59951C53.06 3.71591 53.157 3.80806 53.2928 3.87111C53.4286 3.93416 53.6178 3.9681 53.8603 3.9681C54.0301 3.9681 54.1658 3.94385 54.2725 3.8905C54.3793 3.83715 54.4666 3.74986 54.5248 3.62861C54.583 3.50735 54.6266 3.34729 54.6509 3.14844C54.6751 2.94959 54.6848 2.71194 54.6848 2.42579C54.6848 2.13963 54.6751 1.90199 54.6509 1.70313C54.6266 1.50428 54.5878 1.34907 54.5248 1.22297C54.4617 1.10172 54.3793 1.01442 54.2725 0.956221C54.1658 0.902871 54.0252 0.873764 53.8603 0.873764Z" fill="#231F20"/>
<path d="M59.9085 3.76438C60.0443 3.88563 60.2286 3.94868 60.4469 3.94868C60.6506 3.94868 60.8203 3.90018 60.9561 3.80803C61.0919 3.71588 61.1598 3.57522 61.1598 3.38122C61.1598 3.27937 61.1404 3.19207 61.1065 3.12417C61.0725 3.05627 61.024 2.99806 60.9658 2.95441C60.9076 2.91076 60.8397 2.87196 60.7621 2.84286C60.6845 2.81376 60.6021 2.78467 60.5196 2.75072L59.9716 2.56156C59.6466 2.44516 59.3944 2.28995 59.2198 2.1008C59.0452 1.91165 58.953 1.66915 58.953 1.3636C58.953 1.00954 59.0791 0.737938 59.3362 0.543936C59.5932 0.349934 59.9376 0.25293 60.379 0.25293C60.8203 0.25293 61.1889 0.354793 61.446 0.553646C61.703 0.752498 61.8437 1.0823 61.8582 1.53821H61.0434C61.0337 1.32965 60.9755 1.16959 60.8591 1.05804C60.7476 0.946489 60.5875 0.888286 60.3838 0.888286C60.1801 0.888286 60.0346 0.931941 59.9231 1.01439C59.8115 1.09684 59.7533 1.22779 59.7533 1.40725C59.7533 1.49455 59.7679 1.5673 59.797 1.6255C59.8261 1.68855 59.8697 1.7419 59.9279 1.7904C59.9861 1.8389 60.0589 1.88255 60.151 1.92135C60.2383 1.96015 60.345 2.0038 60.4663 2.0426L61.0095 2.22691C61.1404 2.27541 61.2665 2.33361 61.3829 2.39666C61.4993 2.45971 61.606 2.53246 61.6933 2.61976C61.7806 2.70706 61.8485 2.80891 61.9019 2.92531C61.9552 3.04172 61.9746 3.18237 61.9746 3.34727C61.9746 3.54612 61.9358 3.72073 61.8582 3.87108C61.7806 4.02143 61.6739 4.15238 61.5381 4.25908C61.4023 4.36578 61.2374 4.44823 61.0483 4.50158C60.8591 4.55493 60.6506 4.58404 60.4323 4.58404C59.9037 4.58404 59.5156 4.45308 59.2731 4.19603C59.0306 3.93897 58.9045 3.58978 58.8948 3.15812H59.6903C59.7 3.44428 59.7727 3.64797 59.9134 3.76922L59.9085 3.76438Z" fill="#231F20"/>
<path d="M66.1985 2.65371C66.1985 2.89622 66.2179 3.09992 66.247 3.26482C66.2761 3.42973 66.3246 3.57038 66.3876 3.67223C66.4507 3.77408 66.5331 3.85168 66.6398 3.89533C66.7417 3.93898 66.8726 3.96323 67.0279 3.96323C67.3383 3.96323 67.5565 3.88563 67.6778 3.73043C67.799 3.57522 67.8621 3.35212 67.8718 3.06597H68.6672C68.6284 3.58493 68.4732 3.96808 68.2064 4.21543C67.9397 4.46278 67.5468 4.58404 67.0279 4.58404C66.732 4.58404 66.4846 4.54523 66.2761 4.46763C66.0675 4.39003 65.8978 4.26393 65.7717 4.09418C65.6407 3.92443 65.5486 3.70132 65.4904 3.42487C65.4322 3.15327 65.4031 2.81861 65.4031 2.4209C65.4031 2.0232 65.4322 1.6934 65.4952 1.42179C65.5583 1.15019 65.6504 0.922247 65.7814 0.747645C65.9123 0.573043 66.0821 0.446942 66.2858 0.369341C66.4895 0.29174 66.7417 0.25293 67.0279 0.25293C67.2752 0.25293 67.5032 0.286886 67.702 0.349937C67.9057 0.412987 68.0755 0.524535 68.2161 0.679737C68.3568 0.834939 68.4635 1.04834 68.5411 1.31509C68.6138 1.58185 68.6526 1.92135 68.6526 2.33361V2.65371H66.2033H66.1985ZM67.0279 0.873736C66.8775 0.873736 66.7514 0.893139 66.6544 0.936789C66.5574 0.98044 66.4749 1.04349 66.4119 1.13564C66.3488 1.22779 66.3003 1.3442 66.2712 1.4897C66.2421 1.6352 66.2179 1.8098 66.2082 2.01836H67.8669C67.8572 1.82435 67.8378 1.65459 67.8087 1.50909C67.7796 1.36359 67.7311 1.24719 67.6681 1.15019C67.605 1.05804 67.5226 0.990144 67.4159 0.941644C67.3091 0.893143 67.1831 0.873736 67.0279 0.873736Z" fill="#231F20"/>
<path d="M73.7408 0.257784C74.1288 0.257784 74.4392 0.374191 74.672 0.611844L74.7399 0.325692H75.385V4.51613H74.7739L74.6769 4.18148C74.575 4.29788 74.4441 4.39488 74.2937 4.47248C74.1434 4.55008 73.9591 4.58404 73.7408 4.58404C73.4449 4.58404 73.1976 4.54523 72.989 4.46763C72.7805 4.39003 72.6107 4.26393 72.4846 4.09418C72.3537 3.92443 72.2615 3.70132 72.2033 3.42487C72.1451 3.15327 72.116 2.81861 72.116 2.4209C72.116 2.0232 72.1451 1.6934 72.2082 1.42179C72.2712 1.15019 72.3634 0.922247 72.4992 0.747645C72.6301 0.573043 72.7999 0.446942 73.0036 0.369341C73.2073 0.29174 73.4595 0.25293 73.7457 0.25293L73.7408 0.257784ZM73.7408 3.96323C73.9833 3.96323 74.1725 3.92928 74.3083 3.86623C74.4392 3.80318 74.5411 3.71103 74.6041 3.59462V1.23749C74.5217 1.12109 74.415 1.02894 74.2743 0.965888C74.1337 0.902838 73.9591 0.868896 73.7408 0.868896C73.5711 0.868896 73.4304 0.897988 73.3237 0.951339C73.217 1.00469 73.1345 1.092 73.0715 1.2181C73.0084 1.33935 72.9696 1.4994 72.9454 1.69825C72.9211 1.8971 72.9114 2.13475 72.9114 2.4209C72.9114 2.70706 72.9211 2.94957 72.9454 3.14357C72.9696 3.33758 73.0084 3.49762 73.0715 3.62372C73.1345 3.74983 73.217 3.83228 73.3237 3.88563C73.4304 3.93898 73.5711 3.96323 73.7408 3.96323Z" fill="#231F20"/>
<path d="M100.294 27.8811C100.294 28.187 100.515 28.4075 100.821 28.4075H102.88C103.186 28.4075 103.407 28.187 103.407 27.8811V24.8717L100.294 23.5449V27.8775V27.8811Z" fill="url(#paint0_linear_1224_10803)"/>
<path d="M105.249 18.1416L100.294 20.3862V22.3888L103.407 23.7156V20.5711L105.907 25.1847L107.771 22.7908L105.249 18.1416Z" fill="url(#paint1_linear_1224_10803)"/>
<path d="M103.794 15.456C103.677 15.2532 103.488 15.1465 103.246 15.1465H100.824C100.518 15.1465 100.297 15.367 100.297 15.6729V19.2158L104.74 17.2025L103.794 15.4595V15.456Z" fill="url(#paint2_linear_1224_10803)"/>
<path d="M106.462 26.2056L107.486 28.0945C107.604 28.3008 107.792 28.4111 108.034 28.4111H110.456C110.762 28.4111 110.983 28.1905 110.983 27.8846V20.4004L106.458 26.2056H106.462Z" fill="url(#paint3_linear_1224_10803)"/>
<path d="M111.965 16.5234L109.55 14.1757C109.493 14.1081 109.39 14.1081 109.33 14.1757L106.911 16.5234C106.829 16.6194 106.893 16.7653 107.021 16.7653H107.875V22.6559L110.987 18.6612V16.7653H111.855C111.98 16.7653 112.047 16.6159 111.965 16.5234Z" fill="url(#paint4_linear_1224_10803)"/>
<path d="M11.0558 15.7827H7.90422C7.80462 15.7827 7.72636 15.861 7.72636 15.9606V22.1393C7.72636 22.5164 7.75481 23.0108 7.78682 23.4412C7.58407 22.9966 7.32795 22.4701 7.08607 22.0504L3.51825 15.8716C3.48624 15.8183 3.42933 15.7827 3.3653 15.7827H0.178101C0.0785013 15.7827 0.000244141 15.861 0.000244141 15.9606V29.186C0.000244141 29.2856 0.0785013 29.3639 0.178101 29.3639H3.32972C3.42932 29.3639 3.50758 29.2856 3.50758 29.186V23.0251C3.50758 22.648 3.47913 22.1536 3.44712 21.7231C3.64987 22.1678 3.90599 22.6942 4.14787 23.114L7.73347 29.2749C7.76548 29.3283 7.8224 29.3639 7.88642 29.3639H11.0558C11.1554 29.3639 11.2337 29.2856 11.2337 29.186V15.9606C11.2337 15.861 11.1554 15.7827 11.0558 15.7827Z" fill="#231F20"/>
<path d="M20.3545 15.9037C20.3296 15.8325 20.2621 15.7827 20.1874 15.7827H16.8721C16.7938 15.7827 16.7263 15.8325 16.7049 15.9037L12.3261 29.1291C12.3083 29.1824 12.319 29.2429 12.351 29.2892C12.383 29.3354 12.4399 29.3639 12.4968 29.3639H15.7409C15.8192 29.3639 15.8903 29.3105 15.9117 29.2322L16.6516 26.5857H20.4008L21.1549 29.2322C21.1762 29.3069 21.2474 29.3603 21.3256 29.3603H24.5698C24.6267 29.3603 24.68 29.3318 24.7156 29.2856C24.7512 29.2394 24.7583 29.1789 24.7405 29.1255L20.3617 15.9001L20.3545 15.9037ZM19.5542 23.644H17.4839L18.1562 21.2998C18.2807 20.8588 18.4195 20.2398 18.5262 19.7596C18.6293 20.2398 18.7716 20.8588 18.8961 21.2998L19.5542 23.644Z" fill="#231F20"/>
<path d="M36.3077 15.7827H32.9391C32.8609 15.7827 32.7933 15.8325 32.7684 15.9072L30.4633 23.4377C30.3388 23.8503 30.2179 24.3696 30.129 24.7929C30.04 24.3696 29.9191 23.8503 29.7946 23.4377L27.5251 15.9108C27.5038 15.8361 27.4327 15.7827 27.3544 15.7827H23.9324C23.8755 15.7827 23.8222 15.8112 23.7866 15.8574C23.7546 15.9037 23.7439 15.9641 23.7617 16.0175L28.3184 29.2429C28.3433 29.3141 28.4109 29.3639 28.4856 29.3639H31.7653C31.84 29.3639 31.9075 29.3141 31.9324 29.2429L36.4714 16.0175C36.4891 15.9641 36.482 15.9037 36.4465 15.8574C36.4109 15.8112 36.3575 15.7827 36.3006 15.7827H36.3077Z" fill="#231F20"/>
<path d="M40.8654 15.7827H37.7137C37.6155 15.7827 37.5359 15.8623 37.5359 15.9606V29.186C37.5359 29.2842 37.6155 29.3639 37.7137 29.3639H40.8654C40.9636 29.3639 41.0432 29.2842 41.0432 29.186V15.9606C41.0432 15.8623 40.9636 15.7827 40.8654 15.7827Z" fill="#231F20"/>
<path d="M55.5626 22.0542C55.5626 21.7411 55.3349 21.5099 55.0183 21.5099H49.3447C49.0317 21.5099 48.8004 21.7376 48.8004 22.0542V23.8754C48.8004 24.1884 49.0281 24.4196 49.3447 24.4196H52.4038C52.2153 25.7358 51.0201 26.6037 49.3447 26.6037C47.0681 26.6037 45.4176 24.9746 45.4176 22.7336C45.4176 20.4926 47.0503 18.8421 49.2131 18.8421C50.2162 18.8421 51.109 19.18 51.9343 19.8701C52.1797 20.0835 52.4963 20.055 52.7062 19.8131L53.9796 18.465C54.2962 18.0702 54.1041 17.7714 53.9618 17.6291C52.7168 16.3627 51.0663 15.6904 49.1917 15.6904C45.254 15.6904 42.1699 18.7851 42.1699 22.73C42.1699 26.6749 45.2789 29.7518 49.2486 29.7518C52.9623 29.7518 55.559 27.0875 55.559 23.2742V22.0542H55.5626Z" fill="#231F20"/>
<path d="M63.2463 15.9037C63.2214 15.8325 63.1538 15.7827 63.0791 15.7827H59.7638C59.6856 15.7827 59.618 15.8325 59.5966 15.9037L55.2178 29.1291C55.2 29.1824 55.2107 29.2429 55.2427 29.2892C55.2747 29.3354 55.3316 29.3639 55.3885 29.3639H58.6327C58.7109 29.3639 58.7821 29.3105 58.8034 29.2322L59.5433 26.5857H63.2925L64.0466 29.2322C64.068 29.3069 64.1391 29.3603 64.2174 29.3603H67.4615C67.5184 29.3603 67.5718 29.3318 67.6073 29.2856C67.6429 29.2394 67.65 29.1789 67.6322 29.1255L63.2534 15.9001L63.2463 15.9037ZM62.4459 23.644H60.3757L61.048 21.2998C61.1725 20.8588 61.3112 20.2398 61.4179 19.7596C61.5211 20.2398 61.6633 20.8588 61.7878 21.2998L62.4459 23.644Z" fill="#231F20"/>
<path d="M77.7415 15.7827H66.7713C66.6717 15.7827 66.5934 15.861 66.5934 15.9606V18.7351C66.5934 18.8347 66.6717 18.913 66.7713 18.913H70.5027V29.186C70.5027 29.2856 70.581 29.3639 70.6806 29.3639H73.8322C73.9318 29.3639 74.0101 29.2856 74.0101 29.186V18.913H77.7415C77.8411 18.913 77.9194 18.8347 77.9194 18.7351V15.9606C77.9194 15.861 77.8411 15.7827 77.7415 15.7827Z" fill="#231F20"/>
<path d="M82.4767 15.7827H79.3251C79.2268 15.7827 79.1472 15.8623 79.1472 15.9606V29.186C79.1472 29.2842 79.2268 29.3639 79.3251 29.3639H82.4767C82.5749 29.3639 82.6546 29.2842 82.6546 29.186V15.9606C82.6546 15.8623 82.5749 15.7827 82.4767 15.7827Z" fill="#231F20"/>
<path d="M91.3585 15.5625C87.4172 15.5625 84.4434 18.5434 84.4434 22.4918C84.4434 26.4402 87.4172 29.5883 91.3585 29.5883C95.2998 29.5883 98.2736 26.5363 98.2736 22.4918C98.2736 18.4473 95.2998 15.5625 91.3585 15.5625ZM91.3585 26.273C89.5088 26.273 88.061 24.6119 88.061 22.4918C88.061 20.3718 89.5088 18.8778 91.3585 18.8778C93.2082 18.8778 94.656 20.4642 94.656 22.4918C94.656 24.5194 93.2082 26.273 91.3585 26.273Z" fill="#231F20"/>
<defs>
<linearGradient id="paint0_linear_1224_10803" x1="100.294" y1="25.978" x2="103.407" y2="25.978" gradientUnits="userSpaceOnUse">
<stop offset="0.11" stop-color="#AD2724"/>
<stop offset="0.97" stop-color="#EA1881"/>
</linearGradient>
<linearGradient id="paint1_linear_1224_10803" x1="100.294" y1="21.6632" x2="107.771" y2="21.6632" gradientUnits="userSpaceOnUse">
<stop stop-color="#0092D2"/>
<stop offset="0.39" stop-color="#0085C5"/>
<stop offset="1" stop-color="#016AAB"/>
</linearGradient>
<linearGradient id="paint2_linear_1224_10803" x1="100.294" y1="17.1812" x2="104.737" y2="17.1812" gradientUnits="userSpaceOnUse">
<stop offset="0.12" stop-color="#8DC63F"/>
<stop offset="1" stop-color="#009845"/>
</linearGradient>
<linearGradient id="paint3_linear_1224_10803" x1="106.462" y1="24.4057" x2="110.986" y2="24.4057" gradientUnits="userSpaceOnUse">
<stop stop-color="#F89C41"/>
<stop offset="1" stop-color="#FABA3C"/>
</linearGradient>
<linearGradient id="paint4_linear_1224_10803" x1="106.875" y1="18.3909" x2="112.005" y2="18.3909" gradientUnits="userSpaceOnUse">
<stop stop-color="#AD2724"/>
<stop offset="1" stop-color="#DD1C81"/>
</linearGradient>
</defs>
</svg>
