<svg width="76" height="76" viewBox="0 0 76 76" fill="none" xmlns="http://www.w3.org/2000/svg">
<path d="M58 39.25V25C58 20.7996 58 18.6994 57.1825 17.0951C56.4635 15.6839 55.3161 14.5365 53.9049 13.8175C52.3006 13 50.2004 13 46 13H30C25.7996 13 23.6994 13 22.0951 13.8175C20.6839 14.5365 19.5365 15.6839 18.8175 17.0951C18 18.6994 18 20.7996 18 25V51C18 55.2004 18 57.3006 18.8175 58.9049C19.5365 60.3161 20.6839 61.4635 22.0951 62.1825C23.6994 63 25.7995 63 29.9996 63H39.25M43 35.5H28M33 45.5H28M48 25.5H28M45.5 55.5L53 63M53 63L60.5 55.5M53 63V48" stroke="#0F0F0F" stroke-width="3" stroke-linecap="round" stroke-linejoin="round"/>
</svg>
