<svg width="76" height="76" viewBox="0 0 76 76" fill="none" xmlns="http://www.w3.org/2000/svg">
<path d="M27.9986 31.75H37.9986M27.9986 40.5H45.4986M39.2486 58C50.9846 58 60.4986 48.486 60.4986 36.75C60.4986 25.0139 50.9846 15.5 39.2486 15.5C27.5125 15.5 17.9986 25.0139 17.9986 36.75C17.9986 39.125 18.3882 41.409 19.107 43.5415C19.3775 44.344 19.5127 44.7453 19.5371 45.0536C19.5612 45.358 19.543 45.5714 19.4677 45.8674C19.3914 46.167 19.2231 46.4787 18.8863 47.102L14.7972 54.6709C14.2139 55.7505 13.9222 56.2903 13.9875 56.7069C14.0444 57.0698 14.2579 57.3893 14.5715 57.5806C14.9315 57.8002 15.5418 57.7371 16.7624 57.6109L29.565 56.2875C29.9527 56.2475 30.1465 56.2274 30.3232 56.2342C30.497 56.2408 30.6197 56.2572 30.7892 56.2962C30.9615 56.3359 31.1781 56.4194 31.6115 56.5863C33.9816 57.4994 36.5566 58 39.2486 58Z" stroke="#0F0F0F" stroke-width="3" stroke-linecap="round" stroke-linejoin="round"/>
</svg>
